<svg xmlns="http://www.w3.org/2000/svg" xmlns:xlink="http://www.w3.org/1999/xlink" width="600" zoomAndPan="magnify" viewBox="0 0 450 299.999988" height="400" preserveAspectRatio="xMidYMid meet" version="1.0"><defs><g/><clipPath id="e743c920a8"><path d="M 15 47.402344 L 295 47.402344 L 295 240 L 15 240 Z M 15 47.402344 " clip-rule="nonzero"/></clipPath><clipPath id="32ec3439f9"><path d="M 295 239.9375 L 15 215.460938 L 15 47.402344 L 295 71.882812 Z M 295 239.9375 " clip-rule="nonzero"/></clipPath><clipPath id="e3dd8ca48d"><path d="M 155 60.0625 L 435 60.0625 L 435 252.886719 L 155 252.886719 Z M 155 60.0625 " clip-rule="nonzero"/></clipPath><clipPath id="eb1ab4d868"><path d="M 435 252.597656 L 155 228.117188 L 155 60.0625 L 435 84.539062 Z M 435 252.597656 " clip-rule="nonzero"/></clipPath></defs><g clip-path="url(#e743c920a8)"><g clip-path="url(#32ec3439f9)"><path fill="#ffc457" d="M 15 47.402344 L 295 47.402344 L 295 240.226562 L 15 240.226562 Z M 15 47.402344 " fill-opacity="1" fill-rule="nonzero"/></g></g><g clip-path="url(#e3dd8ca48d)"><g clip-path="url(#eb1ab4d868)"><path fill="#ffc457" d="M 155 60.0625 L 435 60.0625 L 435 252.886719 L 155 252.886719 Z M 155 60.0625 " fill-opacity="1" fill-rule="nonzero"/></g></g><g fill="#ffffff" fill-opacity="0.4"><g transform="translate(194.760396, 138.466438)"><g><path d="M 1.90625 -7.75 C 1.90625 -2.597656 5.882812 0.851562 11.5625 0.851562 C 17.851562 0.851562 21.785156 -2.800781 21.785156 -8.03125 C 21.785156 -12.902344 18.214844 -15.414062 15.050781 -17.890625 C 12.535156 -19.878906 10.464844 -21.621094 10.464844 -23.042969 C 10.464844 -24.582031 11.644531 -25.3125 12.738281 -25.3125 C 13.753906 -25.3125 14.726562 -24.707031 14.726562 -23.527344 C 14.726562 -23 14.644531 -22.515625 14.644531 -22.027344 C 14.644531 -20.6875 15.820312 -19.675781 17.445312 -19.675781 C 19.308594 -19.675781 20.363281 -21.175781 20.363281 -23.773438 C 20.363281 -27.546875 17.039062 -30.261719 12.65625 -30.261719 C 7.992188 -30.261719 4.785156 -27.019531 4.785156 -23.164062 C 4.785156 -19.308594 7.625 -16.46875 10.871094 -14.078125 C 13.589844 -12.046875 16.105469 -10.261719 16.105469 -7.910156 C 16.105469 -5.394531 14.035156 -4.21875 11.96875 -4.21875 C 9.777344 -4.21875 7.585938 -5.476562 7.585938 -7.75 C 7.585938 -9.25 8.277344 -10.386719 8.277344 -11.519531 C 8.277344 -12.902344 7.300781 -13.914062 5.515625 -13.914062 C 4.179688 -13.914062 3.203125 -13.144531 2.71875 -11.925781 C 2.148438 -10.507812 1.90625 -8.964844 1.90625 -7.75 Z M 1.90625 -7.75 "/></g></g></g><g fill="#ffffff" fill-opacity="0.4"><g transform="translate(215.64806, 138.466438)"><g><path d="M 18.378906 -10.992188 C 16.875 -6.734375 13.589844 -4.460938 10.261719 -4.460938 C 7.871094 -4.460938 6.042969 -5.558594 5.640625 -7.546875 C 6.976562 -6.53125 8.355469 -6.167969 9.898438 -6.167969 C 13.46875 -6.167969 15.984375 -9.007812 15.984375 -11.925781 C 15.984375 -14.886719 13.46875 -17.929688 9.128906 -17.929688 C 3.40625 -17.929688 0.121094 -13.0625 0.121094 -8.316406 C 0.121094 -2.960938 4.460938 0.566406 9.9375 0.566406 C 14.28125 0.566406 19.59375 -1.746094 22.191406 -9.574219 C 22.273438 -9.816406 22.3125 -10.0625 22.3125 -10.304688 C 22.3125 -11.519531 21.21875 -12.25 20.160156 -12.25 C 19.433594 -12.25 18.703125 -11.886719 18.378906 -10.992188 Z M 8.804688 -12.941406 C 10.019531 -12.941406 10.710938 -12.171875 10.710938 -11.359375 C 10.710938 -10.546875 9.980469 -9.695312 8.558594 -9.695312 C 7.828125 -9.695312 7.019531 -9.859375 5.921875 -10.425781 C 6.449219 -11.847656 7.503906 -12.941406 8.804688 -12.941406 Z M 8.804688 -12.941406 "/></g></g></g><g fill="#ffffff" fill-opacity="0.4"><g transform="translate(234.467237, 138.466438)"><g><path d="M 3.730469 -18.824219 C 5.515625 -18.824219 6.9375 -20.242188 6.9375 -22.027344 C 6.9375 -23.8125 5.515625 -25.234375 3.730469 -25.234375 C 1.945312 -25.234375 0.527344 -23.8125 0.527344 -22.027344 C 0.527344 -20.242188 1.945312 -18.824219 3.730469 -18.824219 Z M 9.046875 -10.992188 C 8.234375 -8.761719 7.019531 -6.207031 5.394531 -4.097656 L 6.042969 -14.886719 C 6.167969 -16.671875 4.785156 -17.6875 3.328125 -17.6875 C 2.027344 -17.6875 0.648438 -16.796875 0.566406 -15.335938 C 0.324219 -10.546875 -0.0390625 -4.421875 -0.285156 -0.609375 C -5.03125 1.824219 -7.667969 3.082031 -7.667969 6.410156 C -7.667969 8.804688 -5.761719 10.710938 -2.394531 10.710938 C 2.3125 10.710938 4.421875 7.140625 4.988281 1.90625 C 8.964844 -1.054688 11.195312 -4.867188 12.859375 -9.574219 C 12.941406 -9.816406 12.980469 -10.0625 12.980469 -10.261719 C 12.980469 -11.480469 11.886719 -12.332031 10.832031 -12.332031 C 10.101562 -12.332031 9.371094 -11.925781 9.046875 -10.992188 Z M -1.988281 6.125 C -2.394531 6.125 -2.597656 5.921875 -2.597656 5.597656 C -2.597656 5.070312 -1.824219 4.585938 -0.691406 4.015625 C -0.972656 5.476562 -1.378906 6.125 -1.988281 6.125 Z M -1.988281 6.125 "/></g></g></g><g fill="#ffffff" fill-opacity="0.4"><g transform="translate(243.957948, 138.466438)"><g><path d="M 20.324219 -10.992188 C 18.90625 -7.222656 17.605469 -4.421875 16.875 -4.421875 C 16.429688 -4.421875 16.1875 -5.113281 16.1875 -6.613281 C 16.1875 -10.425781 16.835938 -14.238281 16.835938 -15.863281 C 16.835938 -17.324219 15.578125 -18.09375 14.28125 -18.09375 C 13.101562 -18.09375 12.210938 -17.523438 11.722656 -16.46875 C 10.710938 -17.28125 9.574219 -17.6875 8.4375 -17.6875 C 3.082031 -17.6875 -0.203125 -12.007812 -0.203125 -7.019531 C -0.203125 -1.988281 2.878906 0.648438 6.207031 0.648438 C 8.316406 0.648438 10.464844 -0.363281 12.089844 -2.476562 C 12.980469 -0.363281 14.644531 0.648438 16.390625 0.648438 C 19.433594 0.648438 21.621094 -2.070312 24.136719 -9.574219 C 24.21875 -9.816406 24.257812 -10.0625 24.257812 -10.261719 C 24.257812 -11.480469 23.164062 -12.210938 22.109375 -12.210938 C 21.378906 -12.210938 20.648438 -11.847656 20.324219 -10.992188 Z M 7.425781 -4.382812 C 5.964844 -4.382812 5.273438 -5.800781 5.273438 -7.425781 C 5.273438 -9.777344 6.652344 -12.574219 9.207031 -12.574219 C 10.101562 -12.574219 10.789062 -12.046875 11.15625 -11.601562 C 10.914062 -8.355469 10.261719 -4.382812 7.425781 -4.382812 Z M 7.425781 -4.382812 "/></g></g></g><g fill="#250f77" fill-opacity="1"><g transform="translate(192.967544, 136.673588)"><g><path d="M 1.90625 -7.75 C 1.90625 -2.597656 5.882812 0.851562 11.5625 0.851562 C 17.851562 0.851562 21.785156 -2.800781 21.785156 -8.03125 C 21.785156 -12.902344 18.214844 -15.414062 15.050781 -17.890625 C 12.535156 -19.878906 10.464844 -21.621094 10.464844 -23.042969 C 10.464844 -24.582031 11.644531 -25.3125 12.738281 -25.3125 C 13.753906 -25.3125 14.726562 -24.707031 14.726562 -23.527344 C 14.726562 -23 14.644531 -22.515625 14.644531 -22.027344 C 14.644531 -20.6875 15.820312 -19.675781 17.445312 -19.675781 C 19.308594 -19.675781 20.363281 -21.175781 20.363281 -23.773438 C 20.363281 -27.546875 17.039062 -30.261719 12.65625 -30.261719 C 7.992188 -30.261719 4.785156 -27.019531 4.785156 -23.164062 C 4.785156 -19.308594 7.625 -16.46875 10.871094 -14.078125 C 13.589844 -12.046875 16.105469 -10.261719 16.105469 -7.910156 C 16.105469 -5.394531 14.035156 -4.21875 11.96875 -4.21875 C 9.777344 -4.21875 7.585938 -5.476562 7.585938 -7.75 C 7.585938 -9.25 8.277344 -10.386719 8.277344 -11.519531 C 8.277344 -12.902344 7.300781 -13.914062 5.515625 -13.914062 C 4.179688 -13.914062 3.203125 -13.144531 2.71875 -11.925781 C 2.148438 -10.507812 1.90625 -8.964844 1.90625 -7.75 Z M 1.90625 -7.75 "/></g></g></g><g fill="#250f77" fill-opacity="1"><g transform="translate(213.855207, 136.673588)"><g><path d="M 18.378906 -10.992188 C 16.875 -6.734375 13.589844 -4.460938 10.261719 -4.460938 C 7.871094 -4.460938 6.042969 -5.558594 5.640625 -7.546875 C 6.976562 -6.53125 8.355469 -6.167969 9.898438 -6.167969 C 13.46875 -6.167969 15.984375 -9.007812 15.984375 -11.925781 C 15.984375 -14.886719 13.46875 -17.929688 9.128906 -17.929688 C 3.40625 -17.929688 0.121094 -13.0625 0.121094 -8.316406 C 0.121094 -2.960938 4.460938 0.566406 9.9375 0.566406 C 14.28125 0.566406 19.59375 -1.746094 22.191406 -9.574219 C 22.273438 -9.816406 22.3125 -10.0625 22.3125 -10.304688 C 22.3125 -11.519531 21.21875 -12.25 20.160156 -12.25 C 19.433594 -12.25 18.703125 -11.886719 18.378906 -10.992188 Z M 8.804688 -12.941406 C 10.019531 -12.941406 10.710938 -12.171875 10.710938 -11.359375 C 10.710938 -10.546875 9.980469 -9.695312 8.558594 -9.695312 C 7.828125 -9.695312 7.019531 -9.859375 5.921875 -10.425781 C 6.449219 -11.847656 7.503906 -12.941406 8.804688 -12.941406 Z M 8.804688 -12.941406 "/></g></g></g><g fill="#250f77" fill-opacity="1"><g transform="translate(232.674385, 136.673588)"><g><path d="M 3.730469 -18.824219 C 5.515625 -18.824219 6.9375 -20.242188 6.9375 -22.027344 C 6.9375 -23.8125 5.515625 -25.234375 3.730469 -25.234375 C 1.945312 -25.234375 0.527344 -23.8125 0.527344 -22.027344 C 0.527344 -20.242188 1.945312 -18.824219 3.730469 -18.824219 Z M 9.046875 -10.992188 C 8.234375 -8.761719 7.019531 -6.207031 5.394531 -4.097656 L 6.042969 -14.886719 C 6.167969 -16.671875 4.785156 -17.6875 3.328125 -17.6875 C 2.027344 -17.6875 0.648438 -16.796875 0.566406 -15.335938 C 0.324219 -10.546875 -0.0390625 -4.421875 -0.285156 -0.609375 C -5.03125 1.824219 -7.667969 3.082031 -7.667969 6.410156 C -7.667969 8.804688 -5.761719 10.710938 -2.394531 10.710938 C 2.3125 10.710938 4.421875 7.140625 4.988281 1.90625 C 8.964844 -1.054688 11.195312 -4.867188 12.859375 -9.574219 C 12.941406 -9.816406 12.980469 -10.0625 12.980469 -10.261719 C 12.980469 -11.480469 11.886719 -12.332031 10.832031 -12.332031 C 10.101562 -12.332031 9.371094 -11.925781 9.046875 -10.992188 Z M -1.988281 6.125 C -2.394531 6.125 -2.597656 5.921875 -2.597656 5.597656 C -2.597656 5.070312 -1.824219 4.585938 -0.691406 4.015625 C -0.972656 5.476562 -1.378906 6.125 -1.988281 6.125 Z M -1.988281 6.125 "/></g></g></g><g fill="#250f77" fill-opacity="1"><g transform="translate(242.165095, 136.673588)"><g><path d="M 20.324219 -10.992188 C 18.90625 -7.222656 17.605469 -4.421875 16.875 -4.421875 C 16.429688 -4.421875 16.1875 -5.113281 16.1875 -6.613281 C 16.1875 -10.425781 16.835938 -14.238281 16.835938 -15.863281 C 16.835938 -17.324219 15.578125 -18.09375 14.28125 -18.09375 C 13.101562 -18.09375 12.210938 -17.523438 11.722656 -16.46875 C 10.710938 -17.28125 9.574219 -17.6875 8.4375 -17.6875 C 3.082031 -17.6875 -0.203125 -12.007812 -0.203125 -7.019531 C -0.203125 -1.988281 2.878906 0.648438 6.207031 0.648438 C 8.316406 0.648438 10.464844 -0.363281 12.089844 -2.476562 C 12.980469 -0.363281 14.644531 0.648438 16.390625 0.648438 C 19.433594 0.648438 21.621094 -2.070312 24.136719 -9.574219 C 24.21875 -9.816406 24.257812 -10.0625 24.257812 -10.261719 C 24.257812 -11.480469 23.164062 -12.210938 22.109375 -12.210938 C 21.378906 -12.210938 20.648438 -11.847656 20.324219 -10.992188 Z M 7.425781 -4.382812 C 5.964844 -4.382812 5.273438 -5.800781 5.273438 -7.425781 C 5.273438 -9.777344 6.652344 -12.574219 9.207031 -12.574219 C 10.101562 -12.574219 10.789062 -12.046875 11.15625 -11.601562 C 10.914062 -8.355469 10.261719 -4.382812 7.425781 -4.382812 Z M 7.425781 -4.382812 "/></g></g></g><g fill="#ffffff" fill-opacity="0.4"><g transform="translate(112.565091, 182.716435)"><g><path d="M 21.582031 -15.984375 C 24.382812 -17.242188 25.71875 -19.675781 25.71875 -22.433594 C 25.71875 -26.613281 21.746094 -30.789062 15.335938 -30.789062 C 7.828125 -30.789062 2.71875 -26.328125 2.71875 -20.082031 C 2.71875 -16.917969 4.625 -13.753906 7.222656 -13.753906 C 8.558594 -13.753906 9.613281 -14.765625 9.613281 -16.105469 C 9.613281 -17.28125 8.195312 -18.335938 8.195312 -20.527344 C 8.195312 -23.933594 11.683594 -25.761719 14.808594 -25.761719 C 17.726562 -25.761719 20.082031 -24.339844 20.082031 -21.542969 C 20.082031 -19.714844 18.863281 -17.929688 16.390625 -17.523438 C 16.347656 -17.523438 16.308594 -17.523438 16.265625 -17.484375 C 16.226562 -19.1875 16.066406 -20.40625 15.820312 -21.703125 C 15.496094 -23.246094 14.359375 -24.054688 13.101562 -24.054688 C 11.722656 -24.054688 10.386719 -23.082031 10.386719 -21.378906 C 10.386719 -20.527344 10.789062 -17.566406 10.789062 -16.226562 C 10.789062 -13.144531 10.589844 -10.628906 10.222656 -8.679688 C 9.085938 -9.207031 7.871094 -9.574219 6.53125 -9.574219 C 2.839844 -9.574219 0.972656 -7.019531 0.972656 -4.503906 C 0.972656 -1.945312 2.839844 0.609375 6.53125 0.609375 C 8.761719 0.609375 10.832031 -0.121094 12.453125 -1.824219 C 14.078125 -0.566406 16.066406 0.609375 19.027344 0.609375 C 24.582031 0.609375 28.074219 -3.894531 28.074219 -8.316406 C 28.074219 -11.601562 26.289062 -14.765625 21.582031 -15.984375 Z M 18.78125 -4.460938 C 17.484375 -4.460938 16.1875 -5.113281 14.847656 -5.921875 C 15.539062 -7.789062 15.984375 -10.101562 16.144531 -12.941406 L 16.347656 -12.941406 C 20.566406 -12.941406 22.433594 -11.035156 22.433594 -8.480469 C 22.433594 -6.207031 20.972656 -4.460938 18.78125 -4.460938 Z M 6.003906 -4.585938 C 6.003906 -4.949219 6.367188 -5.355469 7.058594 -5.355469 C 7.871094 -5.355469 8.558594 -5.070312 9.167969 -4.625 C 8.558594 -4.058594 7.828125 -3.855469 7.058594 -3.855469 C 6.367188 -3.855469 6.003906 -4.21875 6.003906 -4.585938 Z M 6.003906 -4.585938 "/></g></g></g><g fill="#ffffff" fill-opacity="0.4"><g transform="translate(141.4428, 182.716435)"><g><path d="M 18.378906 -10.992188 C 16.875 -6.734375 13.589844 -4.460938 10.261719 -4.460938 C 7.871094 -4.460938 6.042969 -5.558594 5.640625 -7.546875 C 6.976562 -6.53125 8.355469 -6.167969 9.898438 -6.167969 C 13.46875 -6.167969 15.984375 -9.007812 15.984375 -11.925781 C 15.984375 -14.886719 13.46875 -17.929688 9.128906 -17.929688 C 3.40625 -17.929688 0.121094 -13.0625 0.121094 -8.316406 C 0.121094 -2.960938 4.460938 0.566406 9.9375 0.566406 C 14.28125 0.566406 19.59375 -1.746094 22.191406 -9.574219 C 22.273438 -9.816406 22.3125 -10.0625 22.3125 -10.304688 C 22.3125 -11.519531 21.21875 -12.25 20.160156 -12.25 C 19.433594 -12.25 18.703125 -11.886719 18.378906 -10.992188 Z M 8.804688 -12.941406 C 10.019531 -12.941406 10.710938 -12.171875 10.710938 -11.359375 C 10.710938 -10.546875 9.980469 -9.695312 8.558594 -9.695312 C 7.828125 -9.695312 7.019531 -9.859375 5.921875 -10.425781 C 6.449219 -11.847656 7.503906 -12.941406 8.804688 -12.941406 Z M 8.804688 -12.941406 "/></g></g></g><g fill="#ffffff" fill-opacity="0.4"><g transform="translate(160.261978, 182.716435)"><g><path d="M 27.625 -10.992188 C 26.207031 -7.019531 25.191406 -4.542969 24.257812 -4.542969 C 23.894531 -4.542969 23.609375 -4.828125 23.609375 -5.476562 C 23.609375 -7.546875 24.257812 -11.441406 24.257812 -13.183594 C 24.257812 -15.820312 22.472656 -17.605469 19.511719 -17.605469 C 17.363281 -17.605469 15.78125 -16.550781 14.523438 -14.320312 C 13.753906 -15.660156 12.25 -16.59375 10.628906 -16.59375 C 8.722656 -16.59375 7.300781 -15.617188 6.125 -13.671875 C 6.207031 -14.726562 6.289062 -15.335938 6.289062 -15.457031 C 6.289062 -17.039062 4.910156 -17.851562 3.570312 -17.851562 C 2.273438 -17.851562 0.933594 -17.121094 0.8125 -15.699219 C 0.527344 -12.617188 0.203125 -8.113281 0.203125 -2.027344 C 0.203125 -0.324219 1.582031 0.527344 2.960938 0.527344 C 4.300781 0.527344 5.679688 -0.324219 5.679688 -2.027344 L 5.679688 -3.8125 C 5.839844 -8.679688 7.464844 -11.683594 9.332031 -11.683594 C 9.816406 -11.683594 10.0625 -11.441406 10.0625 -10.871094 C 10.0625 -9.777344 9.167969 -7.140625 9.167969 -4.421875 C 9.167969 -0.609375 10.019531 0.40625 12.25 0.40625 C 13.710938 0.40625 14.765625 -0.164062 14.765625 -1.746094 C 14.765625 -2.476562 14.605469 -4.179688 14.605469 -4.585938 C 14.605469 -5.234375 14.605469 -5.839844 14.644531 -6.410156 C 14.929688 -10.304688 16.1875 -12.617188 17.851562 -12.617188 C 18.457031 -12.617188 18.78125 -12.292969 18.78125 -11.5625 C 18.78125 -10.507812 18.09375 -7.503906 18.09375 -5.113281 C 18.09375 -1.378906 19.960938 0.445312 23.246094 0.445312 C 26.125 0.445312 28.722656 -1.867188 31.441406 -9.574219 C 31.519531 -9.816406 31.5625 -10.101562 31.5625 -10.34375 C 31.5625 -11.519531 30.507812 -12.332031 29.410156 -12.332031 C 28.679688 -12.332031 27.949219 -11.925781 27.625 -10.992188 Z M 27.625 -10.992188 "/></g></g></g><g fill="#ffffff" fill-opacity="0.4"><g transform="translate(188.328508, 182.716435)"><g/></g></g><g fill="#ffffff" fill-opacity="0.4"><g transform="translate(199.279324, 182.716435)"><g><path d="M 27.34375 -30.101562 C 26.246094 -30.101562 25.03125 -29.574219 23.933594 -28.519531 C 20 -24.746094 16.917969 -18.050781 15.050781 -9.9375 C 14.808594 -14.683594 14.605469 -19.714844 14.238281 -23.367188 C 13.792969 -27.75 11.398438 -30.183594 7.382812 -30.183594 C 5.191406 -30.183594 3.367188 -29.371094 2.273438 -28.152344 C 1.417969 -27.222656 0.933594 -26.125 0.933594 -24.949219 C 0.933594 -23.367188 1.90625 -22.3125 3.40625 -22.3125 C 4.664062 -22.3125 5.355469 -23 5.882812 -23.691406 C 6.410156 -24.421875 6.734375 -25.191406 7.300781 -25.191406 C 7.992188 -25.191406 8.4375 -24.503906 8.601562 -22.675781 C 9.453125 -12.941406 10.0625 -7.464844 10.628906 -2.433594 C 10.832031 -0.488281 12.535156 0.648438 14.320312 0.648438 C 15.902344 0.648438 17.484375 -0.285156 18.050781 -2.273438 C 20.445312 -10.914062 23.082031 -19.675781 28.316406 -24.910156 C 29.332031 -25.921875 29.816406 -26.613281 29.816406 -27.707031 C 29.816406 -29.128906 28.722656 -30.101562 27.34375 -30.101562 Z M 27.34375 -30.101562 "/></g></g></g><g fill="#ffffff" fill-opacity="0.4"><g transform="translate(225.034022, 182.716435)"><g><path d="M 4.382812 -18.824219 C 6.167969 -18.824219 7.585938 -20.242188 7.585938 -22.027344 C 7.585938 -23.8125 6.167969 -25.234375 4.382812 -25.234375 C 2.597656 -25.234375 1.175781 -23.8125 1.175781 -22.027344 C 1.175781 -20.242188 2.597656 -18.824219 4.382812 -18.824219 Z M 5.71875 0.609375 C 8.804688 0.609375 11.441406 -1.664062 14.28125 -9.574219 C 14.359375 -9.777344 14.402344 -10.019531 14.402344 -10.222656 C 14.402344 -11.316406 13.226562 -12.128906 12.128906 -12.128906 C 11.441406 -12.128906 10.75 -11.804688 10.464844 -10.992188 C 9.128906 -7.222656 7.585938 -4.460938 6.53125 -4.460938 C 5.964844 -4.460938 5.4375 -5.03125 5.4375 -7.179688 C 5.4375 -9.167969 6.167969 -13.832031 6.246094 -14.683594 C 6.449219 -16.671875 5.070312 -17.6875 3.609375 -17.6875 C 2.351562 -17.6875 1.09375 -16.917969 0.8125 -15.253906 C 0.445312 -12.980469 -0.0390625 -9.167969 -0.0390625 -7.019531 C -0.0390625 -2.148438 2.070312 0.609375 5.71875 0.609375 Z M 5.71875 0.609375 "/></g></g></g><g fill="#ffffff" fill-opacity="0.4"><g transform="translate(235.94428, 182.716435)"><g><path d="M 18.578125 -10.992188 C 17.160156 -7.019531 15.984375 -4.542969 15.210938 -4.542969 C 14.886719 -4.542969 14.683594 -4.828125 14.683594 -5.476562 C 14.683594 -7.546875 15.335938 -11.441406 15.335938 -13.183594 C 15.335938 -15.820312 13.550781 -17.605469 10.75 -17.605469 C 8.964844 -17.605469 7.464844 -16.714844 6.246094 -14.808594 C 6.246094 -15.171875 6.289062 -15.375 6.289062 -15.457031 C 6.289062 -17.039062 4.910156 -17.851562 3.570312 -17.851562 C 2.273438 -17.851562 0.933594 -17.121094 0.8125 -15.699219 C 0.527344 -12.617188 0.203125 -8.113281 0.203125 -2.027344 C 0.203125 -0.324219 1.582031 0.527344 2.960938 0.527344 C 4.300781 0.527344 5.679688 -0.324219 5.679688 -2.027344 C 5.679688 -3.691406 5.71875 -5.191406 5.71875 -6.53125 C 6.042969 -10.386719 7.300781 -12.617188 8.925781 -12.617188 C 9.535156 -12.617188 9.859375 -12.292969 9.859375 -11.5625 C 9.859375 -10.507812 9.167969 -7.503906 9.167969 -4.664062 C 9.167969 -1.378906 11.035156 0.445312 14.199219 0.445312 C 17.324219 0.445312 19.835938 -1.988281 22.394531 -9.574219 C 22.472656 -9.777344 22.472656 -9.980469 22.472656 -10.183594 C 22.472656 -11.316406 21.339844 -12.128906 20.242188 -12.128906 C 19.554688 -12.128906 18.863281 -11.804688 18.578125 -10.992188 Z M 18.578125 -10.992188 "/></g></g></g><g fill="#ffffff" fill-opacity="0.4"><g transform="translate(254.966248, 182.716435)"><g><path d="M 21.90625 -10.992188 C 20.566406 -7.097656 18.621094 -4.664062 17.523438 -4.664062 C 16.59375 -4.664062 16.144531 -5.964844 15.941406 -9.167969 C 18.5 -12.210938 22.433594 -17.523438 22.433594 -24.542969 C 22.433594 -27.75 20.566406 -30.058594 17.28125 -30.058594 C 13.347656 -30.058594 11.15625 -26.167969 11.15625 -18.78125 C 11.15625 -18.296875 11.195312 -17.851562 11.195312 -17.363281 C 10.464844 -17.726562 9.613281 -17.890625 8.761719 -17.890625 C 3.285156 -17.890625 -0.203125 -12.25 -0.203125 -7.222656 C -0.203125 -3.164062 1.90625 0.488281 6.328125 0.488281 C 8.601562 0.488281 10.628906 -0.769531 12.128906 -2.636719 C 13.101562 -0.8125 14.5625 0.363281 16.511719 0.363281 C 19.148438 0.363281 23.125 -1.824219 25.71875 -9.574219 C 25.800781 -9.777344 25.800781 -9.980469 25.800781 -10.183594 C 25.800781 -11.316406 24.625 -12.128906 23.527344 -12.128906 C 22.839844 -12.128906 22.191406 -11.804688 21.90625 -10.992188 Z M 17.160156 -25.273438 C 17.445312 -25.273438 17.648438 -24.949219 17.648438 -24.015625 C 17.648438 -22.394531 16.957031 -19.390625 15.820312 -16.347656 C 15.941406 -23.285156 16.511719 -25.273438 17.160156 -25.273438 Z M 7.261719 -4.542969 C 5.882812 -4.542969 5.273438 -5.800781 5.273438 -7.34375 C 5.273438 -9.777344 6.773438 -13.023438 9.167969 -13.023438 C 10.386719 -13.023438 11.15625 -12.171875 11.15625 -10.425781 C 11.15625 -7.625 9.574219 -4.542969 7.261719 -4.542969 Z M 7.261719 -4.542969 "/></g></g></g><g fill="#ffffff" fill-opacity="0.4"><g transform="translate(277.314017, 182.716435)"><g><path d="M 19.027344 -10.992188 C 18.457031 -9.453125 17.523438 -8.519531 16.550781 -8.195312 C 16.59375 -8.679688 16.632812 -9.207031 16.632812 -9.695312 C 16.632812 -13.996094 14.238281 -18.011719 9.128906 -18.011719 C 3.203125 -18.011719 0 -12.738281 0 -7.789062 C 0 -3.488281 2.433594 0.527344 7.546875 0.527344 C 11.035156 0.527344 13.550781 -1.339844 15.050781 -3.855469 C 15.253906 -3.855469 15.457031 -3.8125 15.699219 -3.8125 C 18.457031 -3.8125 21.5 -5.558594 22.839844 -9.574219 C 22.921875 -9.816406 22.960938 -10.0625 22.960938 -10.304688 C 22.960938 -11.480469 21.867188 -12.332031 20.8125 -12.332031 C 20.082031 -12.332031 19.351562 -11.96875 19.027344 -10.992188 Z M 8.074219 -4.460938 C 6.289062 -4.460938 5.4375 -6.125 5.4375 -7.992188 C 5.4375 -10.34375 6.773438 -13.023438 9.207031 -13.023438 C 9.613281 -13.023438 9.980469 -12.941406 10.261719 -12.738281 C 9.898438 -12.128906 9.65625 -11.195312 9.65625 -9.898438 C 9.65625 -8.4375 10.0625 -7.222656 10.75 -6.289062 C 10.140625 -5.234375 9.25 -4.460938 8.074219 -4.460938 Z M 8.074219 -4.460938 "/></g></g></g><g fill="#ffffff" fill-opacity="0.4"><g transform="translate(296.782132, 182.716435)"><g><path d="M 7.585938 -0.0390625 C 8.398438 0.730469 9.25 1.054688 10.019531 1.054688 C 11.480469 1.054688 12.65625 -0.0820312 12.65625 -1.542969 C 12.65625 -2.3125 12.292969 -3.203125 11.441406 -4.058594 C 9.453125 -5.921875 8.355469 -9.289062 8.355469 -13.628906 C 8.355469 -17.890625 9.410156 -21.90625 11.277344 -24.828125 C 11.765625 -25.597656 11.96875 -26.328125 11.96875 -26.976562 C 11.96875 -28.519531 10.832031 -29.574219 9.492188 -29.574219 C 8.519531 -29.574219 7.464844 -29.003906 6.613281 -27.707031 C 4.21875 -23.933594 2.839844 -18.703125 2.839844 -13.429688 C 2.839844 -7.75 4.542969 -3.003906 7.585938 -0.0390625 Z M 7.585938 -0.0390625 "/></g></g></g><g fill="#ffffff" fill-opacity="0.4"><g transform="translate(311.464351, 182.716435)"><g><path d="M 20.324219 -10.992188 C 18.90625 -7.222656 17.605469 -4.421875 16.875 -4.421875 C 16.429688 -4.421875 16.1875 -5.113281 16.1875 -6.613281 C 16.1875 -10.425781 16.835938 -14.238281 16.835938 -15.863281 C 16.835938 -17.324219 15.578125 -18.09375 14.28125 -18.09375 C 13.101562 -18.09375 12.210938 -17.523438 11.722656 -16.46875 C 10.710938 -17.28125 9.574219 -17.6875 8.4375 -17.6875 C 3.082031 -17.6875 -0.203125 -12.007812 -0.203125 -7.019531 C -0.203125 -1.988281 2.878906 0.648438 6.207031 0.648438 C 8.316406 0.648438 10.464844 -0.363281 12.089844 -2.476562 C 12.980469 -0.363281 14.644531 0.648438 16.390625 0.648438 C 19.433594 0.648438 21.621094 -2.070312 24.136719 -9.574219 C 24.21875 -9.816406 24.257812 -10.0625 24.257812 -10.261719 C 24.257812 -11.480469 23.164062 -12.210938 22.109375 -12.210938 C 21.378906 -12.210938 20.648438 -11.847656 20.324219 -10.992188 Z M 7.425781 -4.382812 C 5.964844 -4.382812 5.273438 -5.800781 5.273438 -7.425781 C 5.273438 -9.777344 6.652344 -12.574219 9.207031 -12.574219 C 10.101562 -12.574219 10.789062 -12.046875 11.15625 -11.601562 C 10.914062 -8.355469 10.261719 -4.382812 7.425781 -4.382812 Z M 7.425781 -4.382812 "/></g></g></g><g fill="#ffffff" fill-opacity="0.4"><g transform="translate(332.230341, 182.716435)"><g><path d="M 7.910156 -28.4375 C 7.097656 -29.207031 6.246094 -29.53125 5.476562 -29.53125 C 4.015625 -29.53125 2.839844 -28.398438 2.839844 -26.9375 C 2.839844 -26.167969 3.203125 -25.273438 4.058594 -24.421875 C 6.042969 -22.554688 7.140625 -19.1875 7.140625 -14.847656 C 7.140625 -10.589844 6.085938 -6.570312 4.21875 -3.652344 C 3.730469 -2.878906 3.53125 -2.148438 3.53125 -1.5 C 3.53125 0.0390625 4.664062 1.09375 6.003906 1.09375 C 6.976562 1.09375 8.03125 0.527344 8.882812 -0.769531 C 11.277344 -4.542969 12.65625 -9.777344 12.65625 -15.050781 C 12.65625 -20.730469 10.953125 -25.476562 7.910156 -28.4375 Z M 7.910156 -28.4375 "/></g></g></g><g fill="#250f77" fill-opacity="1"><g transform="translate(110.772238, 180.923584)"><g><path d="M 21.582031 -15.984375 C 24.382812 -17.242188 25.71875 -19.675781 25.71875 -22.433594 C 25.71875 -26.613281 21.746094 -30.789062 15.335938 -30.789062 C 7.828125 -30.789062 2.71875 -26.328125 2.71875 -20.082031 C 2.71875 -16.917969 4.625 -13.753906 7.222656 -13.753906 C 8.558594 -13.753906 9.613281 -14.765625 9.613281 -16.105469 C 9.613281 -17.28125 8.195312 -18.335938 8.195312 -20.527344 C 8.195312 -23.933594 11.683594 -25.761719 14.808594 -25.761719 C 17.726562 -25.761719 20.082031 -24.339844 20.082031 -21.542969 C 20.082031 -19.714844 18.863281 -17.929688 16.390625 -17.523438 C 16.347656 -17.523438 16.308594 -17.523438 16.265625 -17.484375 C 16.226562 -19.1875 16.066406 -20.40625 15.820312 -21.703125 C 15.496094 -23.246094 14.359375 -24.054688 13.101562 -24.054688 C 11.722656 -24.054688 10.386719 -23.082031 10.386719 -21.378906 C 10.386719 -20.527344 10.789062 -17.566406 10.789062 -16.226562 C 10.789062 -13.144531 10.589844 -10.628906 10.222656 -8.679688 C 9.085938 -9.207031 7.871094 -9.574219 6.53125 -9.574219 C 2.839844 -9.574219 0.972656 -7.019531 0.972656 -4.503906 C 0.972656 -1.945312 2.839844 0.609375 6.53125 0.609375 C 8.761719 0.609375 10.832031 -0.121094 12.453125 -1.824219 C 14.078125 -0.566406 16.066406 0.609375 19.027344 0.609375 C 24.582031 0.609375 28.074219 -3.894531 28.074219 -8.316406 C 28.074219 -11.601562 26.289062 -14.765625 21.582031 -15.984375 Z M 18.78125 -4.460938 C 17.484375 -4.460938 16.1875 -5.113281 14.847656 -5.921875 C 15.539062 -7.789062 15.984375 -10.101562 16.144531 -12.941406 L 16.347656 -12.941406 C 20.566406 -12.941406 22.433594 -11.035156 22.433594 -8.480469 C 22.433594 -6.207031 20.972656 -4.460938 18.78125 -4.460938 Z M 6.003906 -4.585938 C 6.003906 -4.949219 6.367188 -5.355469 7.058594 -5.355469 C 7.871094 -5.355469 8.558594 -5.070312 9.167969 -4.625 C 8.558594 -4.058594 7.828125 -3.855469 7.058594 -3.855469 C 6.367188 -3.855469 6.003906 -4.21875 6.003906 -4.585938 Z M 6.003906 -4.585938 "/></g></g></g><g fill="#250f77" fill-opacity="1"><g transform="translate(139.649948, 180.923584)"><g><path d="M 18.378906 -10.992188 C 16.875 -6.734375 13.589844 -4.460938 10.261719 -4.460938 C 7.871094 -4.460938 6.042969 -5.558594 5.640625 -7.546875 C 6.976562 -6.53125 8.355469 -6.167969 9.898438 -6.167969 C 13.46875 -6.167969 15.984375 -9.007812 15.984375 -11.925781 C 15.984375 -14.886719 13.46875 -17.929688 9.128906 -17.929688 C 3.40625 -17.929688 0.121094 -13.0625 0.121094 -8.316406 C 0.121094 -2.960938 4.460938 0.566406 9.9375 0.566406 C 14.28125 0.566406 19.59375 -1.746094 22.191406 -9.574219 C 22.273438 -9.816406 22.3125 -10.0625 22.3125 -10.304688 C 22.3125 -11.519531 21.21875 -12.25 20.160156 -12.25 C 19.433594 -12.25 18.703125 -11.886719 18.378906 -10.992188 Z M 8.804688 -12.941406 C 10.019531 -12.941406 10.710938 -12.171875 10.710938 -11.359375 C 10.710938 -10.546875 9.980469 -9.695312 8.558594 -9.695312 C 7.828125 -9.695312 7.019531 -9.859375 5.921875 -10.425781 C 6.449219 -11.847656 7.503906 -12.941406 8.804688 -12.941406 Z M 8.804688 -12.941406 "/></g></g></g><g fill="#250f77" fill-opacity="1"><g transform="translate(158.469125, 180.923584)"><g><path d="M 27.625 -10.992188 C 26.207031 -7.019531 25.191406 -4.542969 24.257812 -4.542969 C 23.894531 -4.542969 23.609375 -4.828125 23.609375 -5.476562 C 23.609375 -7.546875 24.257812 -11.441406 24.257812 -13.183594 C 24.257812 -15.820312 22.472656 -17.605469 19.511719 -17.605469 C 17.363281 -17.605469 15.78125 -16.550781 14.523438 -14.320312 C 13.753906 -15.660156 12.25 -16.59375 10.628906 -16.59375 C 8.722656 -16.59375 7.300781 -15.617188 6.125 -13.671875 C 6.207031 -14.726562 6.289062 -15.335938 6.289062 -15.457031 C 6.289062 -17.039062 4.910156 -17.851562 3.570312 -17.851562 C 2.273438 -17.851562 0.933594 -17.121094 0.8125 -15.699219 C 0.527344 -12.617188 0.203125 -8.113281 0.203125 -2.027344 C 0.203125 -0.324219 1.582031 0.527344 2.960938 0.527344 C 4.300781 0.527344 5.679688 -0.324219 5.679688 -2.027344 L 5.679688 -3.8125 C 5.839844 -8.679688 7.464844 -11.683594 9.332031 -11.683594 C 9.816406 -11.683594 10.0625 -11.441406 10.0625 -10.871094 C 10.0625 -9.777344 9.167969 -7.140625 9.167969 -4.421875 C 9.167969 -0.609375 10.019531 0.40625 12.25 0.40625 C 13.710938 0.40625 14.765625 -0.164062 14.765625 -1.746094 C 14.765625 -2.476562 14.605469 -4.179688 14.605469 -4.585938 C 14.605469 -5.234375 14.605469 -5.839844 14.644531 -6.410156 C 14.929688 -10.304688 16.1875 -12.617188 17.851562 -12.617188 C 18.457031 -12.617188 18.78125 -12.292969 18.78125 -11.5625 C 18.78125 -10.507812 18.09375 -7.503906 18.09375 -5.113281 C 18.09375 -1.378906 19.960938 0.445312 23.246094 0.445312 C 26.125 0.445312 28.722656 -1.867188 31.441406 -9.574219 C 31.519531 -9.816406 31.5625 -10.101562 31.5625 -10.34375 C 31.5625 -11.519531 30.507812 -12.332031 29.410156 -12.332031 C 28.679688 -12.332031 27.949219 -11.925781 27.625 -10.992188 Z M 27.625 -10.992188 "/></g></g></g><g fill="#250f77" fill-opacity="1"><g transform="translate(186.535655, 180.923584)"><g/></g></g><g fill="#250f77" fill-opacity="1"><g transform="translate(197.486472, 180.923584)"><g><path d="M 27.34375 -30.101562 C 26.246094 -30.101562 25.03125 -29.574219 23.933594 -28.519531 C 20 -24.746094 16.917969 -18.050781 15.050781 -9.9375 C 14.808594 -14.683594 14.605469 -19.714844 14.238281 -23.367188 C 13.792969 -27.75 11.398438 -30.183594 7.382812 -30.183594 C 5.191406 -30.183594 3.367188 -29.371094 2.273438 -28.152344 C 1.417969 -27.222656 0.933594 -26.125 0.933594 -24.949219 C 0.933594 -23.367188 1.90625 -22.3125 3.40625 -22.3125 C 4.664062 -22.3125 5.355469 -23 5.882812 -23.691406 C 6.410156 -24.421875 6.734375 -25.191406 7.300781 -25.191406 C 7.992188 -25.191406 8.4375 -24.503906 8.601562 -22.675781 C 9.453125 -12.941406 10.0625 -7.464844 10.628906 -2.433594 C 10.832031 -0.488281 12.535156 0.648438 14.320312 0.648438 C 15.902344 0.648438 17.484375 -0.285156 18.050781 -2.273438 C 20.445312 -10.914062 23.082031 -19.675781 28.316406 -24.910156 C 29.332031 -25.921875 29.816406 -26.613281 29.816406 -27.707031 C 29.816406 -29.128906 28.722656 -30.101562 27.34375 -30.101562 Z M 27.34375 -30.101562 "/></g></g></g><g fill="#250f77" fill-opacity="1"><g transform="translate(223.241169, 180.923584)"><g><path d="M 4.382812 -18.824219 C 6.167969 -18.824219 7.585938 -20.242188 7.585938 -22.027344 C 7.585938 -23.8125 6.167969 -25.234375 4.382812 -25.234375 C 2.597656 -25.234375 1.175781 -23.8125 1.175781 -22.027344 C 1.175781 -20.242188 2.597656 -18.824219 4.382812 -18.824219 Z M 5.71875 0.609375 C 8.804688 0.609375 11.441406 -1.664062 14.28125 -9.574219 C 14.359375 -9.777344 14.402344 -10.019531 14.402344 -10.222656 C 14.402344 -11.316406 13.226562 -12.128906 12.128906 -12.128906 C 11.441406 -12.128906 10.75 -11.804688 10.464844 -10.992188 C 9.128906 -7.222656 7.585938 -4.460938 6.53125 -4.460938 C 5.964844 -4.460938 5.4375 -5.03125 5.4375 -7.179688 C 5.4375 -9.167969 6.167969 -13.832031 6.246094 -14.683594 C 6.449219 -16.671875 5.070312 -17.6875 3.609375 -17.6875 C 2.351562 -17.6875 1.09375 -16.917969 0.8125 -15.253906 C 0.445312 -12.980469 -0.0390625 -9.167969 -0.0390625 -7.019531 C -0.0390625 -2.148438 2.070312 0.609375 5.71875 0.609375 Z M 5.71875 0.609375 "/></g></g></g><g fill="#250f77" fill-opacity="1"><g transform="translate(234.151428, 180.923584)"><g><path d="M 18.578125 -10.992188 C 17.160156 -7.019531 15.984375 -4.542969 15.210938 -4.542969 C 14.886719 -4.542969 14.683594 -4.828125 14.683594 -5.476562 C 14.683594 -7.546875 15.335938 -11.441406 15.335938 -13.183594 C 15.335938 -15.820312 13.550781 -17.605469 10.75 -17.605469 C 8.964844 -17.605469 7.464844 -16.714844 6.246094 -14.808594 C 6.246094 -15.171875 6.289062 -15.375 6.289062 -15.457031 C 6.289062 -17.039062 4.910156 -17.851562 3.570312 -17.851562 C 2.273438 -17.851562 0.933594 -17.121094 0.8125 -15.699219 C 0.527344 -12.617188 0.203125 -8.113281 0.203125 -2.027344 C 0.203125 -0.324219 1.582031 0.527344 2.960938 0.527344 C 4.300781 0.527344 5.679688 -0.324219 5.679688 -2.027344 C 5.679688 -3.691406 5.71875 -5.191406 5.71875 -6.53125 C 6.042969 -10.386719 7.300781 -12.617188 8.925781 -12.617188 C 9.535156 -12.617188 9.859375 -12.292969 9.859375 -11.5625 C 9.859375 -10.507812 9.167969 -7.503906 9.167969 -4.664062 C 9.167969 -1.378906 11.035156 0.445312 14.199219 0.445312 C 17.324219 0.445312 19.835938 -1.988281 22.394531 -9.574219 C 22.472656 -9.777344 22.472656 -9.980469 22.472656 -10.183594 C 22.472656 -11.316406 21.339844 -12.128906 20.242188 -12.128906 C 19.554688 -12.128906 18.863281 -11.804688 18.578125 -10.992188 Z M 18.578125 -10.992188 "/></g></g></g><g fill="#250f77" fill-opacity="1"><g transform="translate(253.173395, 180.923584)"><g><path d="M 21.90625 -10.992188 C 20.566406 -7.097656 18.621094 -4.664062 17.523438 -4.664062 C 16.59375 -4.664062 16.144531 -5.964844 15.941406 -9.167969 C 18.5 -12.210938 22.433594 -17.523438 22.433594 -24.542969 C 22.433594 -27.75 20.566406 -30.058594 17.28125 -30.058594 C 13.347656 -30.058594 11.15625 -26.167969 11.15625 -18.78125 C 11.15625 -18.296875 11.195312 -17.851562 11.195312 -17.363281 C 10.464844 -17.726562 9.613281 -17.890625 8.761719 -17.890625 C 3.285156 -17.890625 -0.203125 -12.25 -0.203125 -7.222656 C -0.203125 -3.164062 1.90625 0.488281 6.328125 0.488281 C 8.601562 0.488281 10.628906 -0.769531 12.128906 -2.636719 C 13.101562 -0.8125 14.5625 0.363281 16.511719 0.363281 C 19.148438 0.363281 23.125 -1.824219 25.71875 -9.574219 C 25.800781 -9.777344 25.800781 -9.980469 25.800781 -10.183594 C 25.800781 -11.316406 24.625 -12.128906 23.527344 -12.128906 C 22.839844 -12.128906 22.191406 -11.804688 21.90625 -10.992188 Z M 17.160156 -25.273438 C 17.445312 -25.273438 17.648438 -24.949219 17.648438 -24.015625 C 17.648438 -22.394531 16.957031 -19.390625 15.820312 -16.347656 C 15.941406 -23.285156 16.511719 -25.273438 17.160156 -25.273438 Z M 7.261719 -4.542969 C 5.882812 -4.542969 5.273438 -5.800781 5.273438 -7.34375 C 5.273438 -9.777344 6.773438 -13.023438 9.167969 -13.023438 C 10.386719 -13.023438 11.15625 -12.171875 11.15625 -10.425781 C 11.15625 -7.625 9.574219 -4.542969 7.261719 -4.542969 Z M 7.261719 -4.542969 "/></g></g></g><g fill="#250f77" fill-opacity="1"><g transform="translate(275.521164, 180.923584)"><g><path d="M 19.027344 -10.992188 C 18.457031 -9.453125 17.523438 -8.519531 16.550781 -8.195312 C 16.59375 -8.679688 16.632812 -9.207031 16.632812 -9.695312 C 16.632812 -13.996094 14.238281 -18.011719 9.128906 -18.011719 C 3.203125 -18.011719 0 -12.738281 0 -7.789062 C 0 -3.488281 2.433594 0.527344 7.546875 0.527344 C 11.035156 0.527344 13.550781 -1.339844 15.050781 -3.855469 C 15.253906 -3.855469 15.457031 -3.8125 15.699219 -3.8125 C 18.457031 -3.8125 21.5 -5.558594 22.839844 -9.574219 C 22.921875 -9.816406 22.960938 -10.0625 22.960938 -10.304688 C 22.960938 -11.480469 21.867188 -12.332031 20.8125 -12.332031 C 20.082031 -12.332031 19.351562 -11.96875 19.027344 -10.992188 Z M 8.074219 -4.460938 C 6.289062 -4.460938 5.4375 -6.125 5.4375 -7.992188 C 5.4375 -10.34375 6.773438 -13.023438 9.207031 -13.023438 C 9.613281 -13.023438 9.980469 -12.941406 10.261719 -12.738281 C 9.898438 -12.128906 9.65625 -11.195312 9.65625 -9.898438 C 9.65625 -8.4375 10.0625 -7.222656 10.75 -6.289062 C 10.140625 -5.234375 9.25 -4.460938 8.074219 -4.460938 Z M 8.074219 -4.460938 "/></g></g></g><g fill="#250f77" fill-opacity="1"><g transform="translate(294.989279, 180.923584)"><g><path d="M 7.585938 -0.0390625 C 8.398438 0.730469 9.25 1.054688 10.019531 1.054688 C 11.480469 1.054688 12.65625 -0.0820312 12.65625 -1.542969 C 12.65625 -2.3125 12.292969 -3.203125 11.441406 -4.058594 C 9.453125 -5.921875 8.355469 -9.289062 8.355469 -13.628906 C 8.355469 -17.890625 9.410156 -21.90625 11.277344 -24.828125 C 11.765625 -25.597656 11.96875 -26.328125 11.96875 -26.976562 C 11.96875 -28.519531 10.832031 -29.574219 9.492188 -29.574219 C 8.519531 -29.574219 7.464844 -29.003906 6.613281 -27.707031 C 4.21875 -23.933594 2.839844 -18.703125 2.839844 -13.429688 C 2.839844 -7.75 4.542969 -3.003906 7.585938 -0.0390625 Z M 7.585938 -0.0390625 "/></g></g></g><g fill="#250f77" fill-opacity="1"><g transform="translate(309.671499, 180.923584)"><g><path d="M 20.324219 -10.992188 C 18.90625 -7.222656 17.605469 -4.421875 16.875 -4.421875 C 16.429688 -4.421875 16.1875 -5.113281 16.1875 -6.613281 C 16.1875 -10.425781 16.835938 -14.238281 16.835938 -15.863281 C 16.835938 -17.324219 15.578125 -18.09375 14.28125 -18.09375 C 13.101562 -18.09375 12.210938 -17.523438 11.722656 -16.46875 C 10.710938 -17.28125 9.574219 -17.6875 8.4375 -17.6875 C 3.082031 -17.6875 -0.203125 -12.007812 -0.203125 -7.019531 C -0.203125 -1.988281 2.878906 0.648438 6.207031 0.648438 C 8.316406 0.648438 10.464844 -0.363281 12.089844 -2.476562 C 12.980469 -0.363281 14.644531 0.648438 16.390625 0.648438 C 19.433594 0.648438 21.621094 -2.070312 24.136719 -9.574219 C 24.21875 -9.816406 24.257812 -10.0625 24.257812 -10.261719 C 24.257812 -11.480469 23.164062 -12.210938 22.109375 -12.210938 C 21.378906 -12.210938 20.648438 -11.847656 20.324219 -10.992188 Z M 7.425781 -4.382812 C 5.964844 -4.382812 5.273438 -5.800781 5.273438 -7.425781 C 5.273438 -9.777344 6.652344 -12.574219 9.207031 -12.574219 C 10.101562 -12.574219 10.789062 -12.046875 11.15625 -11.601562 C 10.914062 -8.355469 10.261719 -4.382812 7.425781 -4.382812 Z M 7.425781 -4.382812 "/></g></g></g><g fill="#250f77" fill-opacity="1"><g transform="translate(330.437488, 180.923584)"><g><path d="M 7.910156 -28.4375 C 7.097656 -29.207031 6.246094 -29.53125 5.476562 -29.53125 C 4.015625 -29.53125 2.839844 -28.398438 2.839844 -26.9375 C 2.839844 -26.167969 3.203125 -25.273438 4.058594 -24.421875 C 6.042969 -22.554688 7.140625 -19.1875 7.140625 -14.847656 C 7.140625 -10.589844 6.085938 -6.570312 4.21875 -3.652344 C 3.730469 -2.878906 3.53125 -2.148438 3.53125 -1.5 C 3.53125 0.0390625 4.664062 1.09375 6.003906 1.09375 C 6.976562 1.09375 8.03125 0.527344 8.882812 -0.769531 C 11.277344 -4.542969 12.65625 -9.777344 12.65625 -15.050781 C 12.65625 -20.730469 10.953125 -25.476562 7.910156 -28.4375 Z M 7.910156 -28.4375 "/></g></g></g></svg>