<?xml version="1.0" standalone="no"?>
<!DOCTYPE svg PUBLIC "-//W3C//DTD SVG 20010904//EN"
 "http://www.w3.org/TR/2001/REC-SVG-20010904/DTD/svg10.dtd">
<svg version="1.0" xmlns="http://www.w3.org/2000/svg"
 width="200.000000pt" height="200.000000pt" viewBox="0 0 200.000000 200.000000"
 preserveAspectRatio="xMidYMid meet">

<g transform="translate(0.000000,200.000000) scale(0.100000,-0.100000)"
fill="#000000" stroke="none">
<path d="M271 1982 c-19 -10 -43 -34 -53 -53 -17 -32 -18 -81 -18 -929 0 -848
1 -897 18 -929 10 -19 34 -43 53 -53 32 -17 75 -18 729 -18 654 0 697 1 729
18 19 10 43 34 53 53 17 32 18 79 18 853 l0 820 -128 128 -128 128 -620 0
c-581 0 -621 -1 -653 -18z m1229 -115 c0 -76 22 -123 71 -149 22 -12 55 -18
96 -18 l63 0 0 -797 c0 -727 -1 -798 -17 -815 -15 -17 -51 -18 -711 -18 -633
0 -697 1 -714 17 -17 15 -18 57 -18 911 0 819 1 897 17 914 15 17 47 18 615
18 l598 0 0 -63z m144 -95 c-50 -4 -74 19 -74 72 l0 40 55 -54 56 -55 -37 -3z"/>
<path d="M820 1634 c-37 -34 -40 -35 -62 -20 -18 13 -51 16 -160 16 -130 0
-138 -1 -165 -24 -28 -24 -28 -25 -31 -164 l-3 -140 29 -34 30 -33 142 0 142
0 29 33 c28 31 29 35 29 139 l0 106 50 53 c52 55 59 71 38 92 -18 18 -24 15
-68 -24z m-102 -76 c10 -10 2 -23 -35 -60 l-46 -47 -29 24 c-16 14 -35 25 -42
25 -14 0 -36 -20 -36 -32 0 -18 84 -98 102 -98 11 0 38 18 60 39 l39 39 -3
-71 -3 -72 -125 0 -125 0 -3 119 c-2 78 1 123 9 132 15 18 219 20 237 2z"/>
<path d="M980 1555 c-6 -8 -10 -22 -8 -32 3 -17 23 -18 307 -18 282 0 305 1
315 18 9 15 7 21 -8 33 -29 21 -588 21 -606 -1z"/>
<path d="M977 1393 c-13 -12 -7 -51 9 -57 9 -3 91 -6 184 -6 140 0 171 3 184
16 19 19 20 26 4 42 -13 13 -369 18 -381 5z"/>
<path d="M464 1161 c-12 -5 -31 -22 -43 -37 -21 -27 -22 -37 -19 -167 3 -138
3 -139 31 -163 27 -23 35 -24 167 -24 132 0 140 1 167 24 28 24 28 25 31 164
l3 140 -29 34 -30 33 -129 2 c-70 2 -138 -1 -149 -6z m264 -185 c2 -78 -1
-123 -9 -132 -15 -18 -219 -20 -237 -2 -13 13 -18 239 -5 252 4 3 61 5 127 4
l121 -3 3 -119z"/>
<path d="M977 1093 c-16 -16 -6 -53 16 -58 12 -3 150 -4 306 -3 252 3 285 5
294 20 8 12 7 21 -2 32 -12 14 -52 16 -311 16 -163 0 -300 -3 -303 -7z"/>
<path d="M974 915 c-4 -8 -4 -22 0 -30 4 -13 35 -15 189 -15 152 0 187 3 197
15 10 12 10 18 0 30 -10 12 -45 15 -197 15 -154 0 -185 -2 -189 -15z"/>
<path d="M451 686 c-42 -23 -50 -52 -51 -183 0 -191 12 -203 199 -203 189 0
201 12 201 200 0 133 -10 168 -55 188 -37 17 -263 15 -294 -2z m274 -186 l0
-125 -125 0 -125 0 -3 114 c-1 63 0 121 2 128 4 11 33 13 128 11 l123 -3 0
-125z"/>
<path d="M974 615 c-4 -8 -4 -22 0 -30 5 -13 46 -15 313 -13 l308 3 0 25 0 25
-308 3 c-267 2 -308 0 -313 -13z"/>
<path d="M980 455 c-6 -8 -10 -22 -8 -32 3 -16 19 -18 187 -21 127 -2 188 1
197 9 18 15 18 24 -2 43 -22 23 -355 24 -374 1z"/>
</g>
</svg>
