<svg xmlns="http://www.w3.org/2000/svg" xmlns:xlink="http://www.w3.org/1999/xlink" width="200" zoomAndPan="magnify" viewBox="0 0 150 149.999998" height="200" preserveAspectRatio="xMidYMid meet" version="1.0"><defs><clipPath id="ea519f71f4"><path d="M 18 1.550781 L 132 1.550781 L 132 148.550781 L 18 148.550781 Z M 18 1.550781 " clip-rule="nonzero"/></clipPath></defs><path fill="#000000" d="M 29.917969 83.921875 C 29.917969 85.398438 29.992188 86.871094 30.136719 88.339844 C 30.28125 89.8125 30.496094 91.269531 30.785156 92.71875 C 31.074219 94.167969 31.429688 95.601562 31.859375 97.011719 C 32.289062 98.425781 32.785156 99.816406 33.351562 101.179688 C 33.914062 102.546875 34.546875 103.878906 35.242188 105.183594 C 35.9375 106.484375 36.695312 107.75 37.515625 108.980469 C 38.335938 110.207031 39.214844 111.390625 40.148438 112.535156 C 41.085938 113.675781 42.078125 114.769531 43.121094 115.8125 C 44.164062 116.859375 45.257812 117.847656 46.398438 118.785156 C 47.539062 119.722656 48.722656 120.601562 49.953125 121.421875 C 51.179688 122.242188 52.445312 123.003906 53.746094 123.699219 C 55.046875 124.394531 56.378906 125.027344 57.746094 125.589844 C 59.109375 126.15625 60.496094 126.652344 61.910156 127.082031 C 63.320312 127.511719 64.753906 127.871094 66.199219 128.15625 C 67.648438 128.445312 69.105469 128.664062 70.574219 128.808594 C 72.046875 128.953125 73.519531 129.023438 74.996094 129.023438 C 76.46875 129.023438 77.945312 128.953125 79.414062 128.808594 C 80.882812 128.664062 82.339844 128.445312 83.789062 128.15625 C 85.234375 127.871094 86.667969 127.511719 88.078125 127.082031 C 89.492188 126.652344 90.878906 126.15625 92.242188 125.589844 C 93.609375 125.027344 94.941406 124.394531 96.242188 123.699219 C 97.542969 123.003906 98.808594 122.242188 100.039062 121.421875 C 101.265625 120.601562 102.449219 119.722656 103.589844 118.785156 C 104.730469 117.847656 105.824219 116.859375 106.867188 115.8125 C 107.910156 114.769531 108.902344 113.675781 109.839844 112.535156 C 110.773438 111.390625 111.652344 110.207031 112.472656 108.980469 C 113.292969 107.75 114.050781 106.484375 114.746094 105.183594 C 115.445312 103.878906 116.074219 102.546875 116.640625 101.179688 C 117.203125 99.816406 117.699219 98.425781 118.128906 97.011719 C 118.558594 95.601562 118.917969 94.167969 119.203125 92.71875 C 119.492188 91.269531 119.707031 89.8125 119.851562 88.339844 C 119.996094 86.871094 120.070312 85.398438 120.070312 83.921875 C 120.070312 82.441406 119.996094 80.96875 119.851562 79.5 C 119.707031 78.027344 119.492188 76.570312 119.203125 75.121094 C 118.917969 73.671875 118.558594 72.242188 118.128906 70.828125 C 117.699219 69.414062 117.203125 68.023438 116.640625 66.660156 C 116.074219 65.292969 115.445312 63.960938 114.746094 62.660156 C 114.050781 61.355469 113.292969 60.089844 112.472656 58.863281 C 111.652344 57.632812 110.773438 56.449219 109.839844 55.304688 C 108.902344 54.164062 107.910156 53.070312 106.867188 52.027344 C 105.824219 50.980469 104.730469 49.992188 103.589844 49.054688 C 102.449219 48.117188 101.265625 47.238281 100.039062 46.417969 C 98.808594 45.597656 97.542969 44.839844 96.242188 44.140625 C 94.941406 43.445312 93.609375 42.816406 92.242188 42.25 C 90.878906 41.683594 89.492188 41.1875 88.078125 40.757812 C 86.667969 40.328125 85.234375 39.972656 83.789062 39.683594 C 82.339844 39.394531 80.882812 39.179688 79.414062 39.035156 C 77.945312 38.886719 76.46875 38.816406 74.996094 38.816406 C 73.519531 38.816406 72.046875 38.890625 70.578125 39.039062 C 69.109375 39.183594 67.652344 39.402344 66.203125 39.691406 C 64.757812 39.980469 63.328125 40.339844 61.914062 40.769531 C 60.503906 41.199219 59.113281 41.695312 57.75 42.261719 C 56.386719 42.828125 55.054688 43.460938 53.753906 44.15625 C 52.453125 44.851562 51.191406 45.609375 49.960938 46.433594 C 48.734375 47.253906 47.550781 48.132812 46.410156 49.070312 C 45.269531 50.003906 44.179688 50.996094 43.132812 52.039062 C 42.089844 53.085938 41.101562 54.175781 40.164062 55.320312 C 39.226562 56.460938 38.351562 57.644531 37.53125 58.871094 C 36.710938 60.101562 35.949219 61.367188 35.253906 62.667969 C 34.558594 63.96875 33.925781 65.304688 33.363281 66.667969 C 32.796875 68.03125 32.300781 69.417969 31.871094 70.832031 C 31.441406 72.246094 31.082031 73.675781 30.792969 75.125 C 30.503906 76.574219 30.285156 78.03125 30.140625 79.5 C 29.992188 80.96875 29.921875 82.445312 29.917969 83.921875 Z M 113.828125 83.921875 C 113.828125 85.191406 113.769531 86.464844 113.644531 87.730469 C 113.519531 88.996094 113.332031 90.253906 113.082031 91.503906 C 112.835938 92.75 112.527344 93.984375 112.15625 95.203125 C 111.789062 96.421875 111.359375 97.617188 110.871094 98.796875 C 110.386719 99.972656 109.84375 101.121094 109.242188 102.242188 C 108.644531 103.367188 107.988281 104.457031 107.28125 105.515625 C 106.578125 106.574219 105.820312 107.59375 105.011719 108.578125 C 104.203125 109.5625 103.351562 110.503906 102.453125 111.40625 C 101.550781 112.304688 100.609375 113.160156 99.628906 113.964844 C 98.644531 114.773438 97.625 115.53125 96.566406 116.238281 C 95.507812 116.945312 94.417969 117.597656 93.296875 118.199219 C 92.171875 118.800781 91.023438 119.34375 89.847656 119.832031 C 88.675781 120.316406 87.476562 120.746094 86.261719 121.113281 C 85.042969 121.484375 83.808594 121.792969 82.5625 122.042969 C 81.316406 122.289062 80.058594 122.476562 78.792969 122.601562 C 77.523438 122.726562 76.257812 122.789062 74.984375 122.789062 C 73.710938 122.789062 72.441406 122.726562 71.175781 122.601562 C 69.910156 122.476562 68.652344 122.289062 67.40625 122.039062 C 66.15625 121.792969 64.925781 121.484375 63.707031 121.113281 C 62.492188 120.742188 61.292969 120.316406 60.117188 119.828125 C 58.945312 119.339844 57.792969 118.796875 56.671875 118.195312 C 55.550781 117.597656 54.460938 116.941406 53.402344 116.234375 C 52.34375 115.527344 51.324219 114.769531 50.339844 113.964844 C 49.359375 113.15625 48.417969 112.300781 47.515625 111.402344 C 46.617188 110.5 45.765625 109.558594 44.957031 108.574219 C 44.152344 107.589844 43.394531 106.570312 42.6875 105.511719 C 41.980469 104.453125 41.328125 103.363281 40.726562 102.238281 C 40.128906 101.117188 39.585938 99.964844 39.097656 98.789062 C 38.613281 97.613281 38.183594 96.417969 37.8125 95.199219 C 37.445312 93.980469 37.136719 92.746094 36.886719 91.5 C 36.640625 90.25 36.453125 88.992188 36.328125 87.726562 C 36.207031 86.457031 36.144531 85.1875 36.144531 83.914062 C 36.144531 82.640625 36.207031 81.371094 36.332031 80.105469 C 36.457031 78.839844 36.640625 77.582031 36.890625 76.332031 C 37.140625 75.082031 37.449219 73.851562 37.816406 72.632812 C 38.1875 71.414062 38.613281 70.21875 39.101562 69.039062 C 39.589844 67.863281 40.132812 66.714844 40.734375 65.59375 C 41.332031 64.46875 41.984375 63.378906 42.691406 62.320312 C 43.398438 61.261719 44.15625 60.242188 44.964844 59.257812 C 45.769531 58.273438 46.625 57.332031 47.523438 56.433594 C 48.425781 55.53125 49.367188 54.679688 50.351562 53.871094 C 51.332031 53.0625 52.355469 52.304688 53.410156 51.597656 C 54.46875 50.890625 55.558594 50.238281 56.683594 49.636719 C 57.804688 49.039062 58.953125 48.496094 60.128906 48.007812 C 61.304688 47.519531 62.5 47.09375 63.71875 46.722656 C 64.933594 46.355469 66.167969 46.046875 67.414062 45.796875 C 68.664062 45.550781 69.921875 45.363281 71.1875 45.238281 C 72.453125 45.113281 73.722656 45.050781 74.996094 45.050781 C 76.265625 45.054688 77.535156 45.117188 78.800781 45.242188 C 80.066406 45.367188 81.320312 45.554688 82.570312 45.804688 C 83.816406 46.054688 85.046875 46.363281 86.265625 46.734375 C 87.480469 47.105469 88.675781 47.535156 89.851562 48.023438 C 91.027344 48.507812 92.175781 49.054688 93.296875 49.652344 C 94.417969 50.253906 95.507812 50.90625 96.5625 51.613281 C 97.621094 52.324219 98.640625 53.078125 99.625 53.886719 C 100.605469 54.695312 101.546875 55.546875 102.445312 56.449219 C 103.347656 57.347656 104.199219 58.289062 105.003906 59.273438 C 105.8125 60.257812 106.570312 61.277344 107.277344 62.335938 C 107.980469 63.394531 108.636719 64.484375 109.234375 65.605469 C 109.835938 66.730469 110.378906 67.878906 110.867188 69.054688 C 111.351562 70.226562 111.78125 71.425781 112.152344 72.640625 C 112.519531 73.859375 112.828125 75.09375 113.078125 76.339844 C 113.328125 77.589844 113.515625 78.847656 113.640625 80.113281 C 113.765625 81.378906 113.828125 82.648438 113.828125 83.921875 Z M 113.828125 83.921875 " fill-opacity="1" fill-rule="nonzero"/><path fill="#000000" d="M 71.871094 56.691406 L 71.871094 87.039062 L 94.230469 87.039062 L 94.230469 80.800781 L 78.101562 80.800781 L 78.101562 56.691406 Z M 71.871094 56.691406 " fill-opacity="1" fill-rule="nonzero"/><g clip-path="url(#ea519f71f4)"><path fill="#000000" d="M 70.335938 17.949219 L 71.894531 17.949219 L 71.894531 27.910156 C 70.472656 27.992188 69.058594 28.125 67.648438 28.316406 C 66.238281 28.503906 64.839844 28.746094 63.449219 29.039062 C 62.058594 29.335938 60.679688 29.683594 59.316406 30.085938 C 57.949219 30.484375 56.601562 30.9375 55.273438 31.4375 C 53.941406 31.941406 52.632812 32.492188 51.34375 33.097656 C 50.054688 33.699219 48.792969 34.347656 47.554688 35.046875 C 46.3125 35.746094 45.101562 36.492188 43.921875 37.28125 C 42.738281 38.070312 41.585938 38.90625 40.46875 39.785156 C 39.351562 40.664062 38.265625 41.582031 37.21875 42.542969 C 36.167969 43.503906 35.15625 44.503906 34.183594 45.539062 C 33.210938 46.578125 32.277344 47.652344 31.386719 48.761719 C 30.496094 49.871094 29.648438 51.011719 28.84375 52.183594 C 28.039062 53.355469 27.277344 54.558594 26.566406 55.789062 C 25.851562 57.019531 25.1875 58.277344 24.566406 59.558594 C 23.949219 60.839844 23.382812 62.144531 22.863281 63.46875 C 22.34375 64.792969 21.875 66.136719 21.460938 67.496094 C 21.042969 68.855469 20.679688 70.230469 20.367188 71.621094 C 20.054688 73.007812 19.792969 74.40625 19.589844 75.8125 C 19.382812 77.222656 19.230469 78.636719 19.132812 80.054688 C 19.03125 81.476562 18.988281 82.898438 18.996094 84.320312 C 19.007812 85.742188 19.070312 87.164062 19.1875 88.582031 C 19.304688 90 19.476562 91.410156 19.703125 92.816406 C 19.925781 94.222656 20.203125 95.617188 20.535156 97 C 20.863281 98.382812 21.246094 99.753906 21.683594 101.109375 C 22.117188 102.460938 22.601562 103.800781 23.140625 105.117188 C 23.675781 106.433594 24.261719 107.730469 24.898438 109.003906 C 25.53125 110.277344 26.214844 111.523438 26.945312 112.746094 C 27.671875 113.96875 28.449219 115.160156 29.269531 116.320312 C 30.089844 117.484375 30.953125 118.613281 31.859375 119.710938 C 32.765625 120.808594 33.710938 121.867188 34.699219 122.890625 C 35.683594 123.917969 36.707031 124.902344 37.769531 125.847656 C 38.832031 126.796875 39.929688 127.703125 41.058594 128.566406 L 35.792969 137.699219 C 35.636719 137.96875 35.503906 138.246094 35.382812 138.53125 C 35.265625 138.816406 35.167969 139.109375 35.085938 139.40625 C 35.007812 139.703125 34.945312 140.007812 34.90625 140.3125 C 34.867188 140.621094 34.847656 140.925781 34.847656 141.238281 C 34.847656 141.546875 34.867188 141.851562 34.90625 142.160156 C 34.945312 142.464844 35.003906 142.769531 35.085938 143.066406 C 35.164062 143.363281 35.265625 143.65625 35.382812 143.941406 C 35.5 144.226562 35.636719 144.503906 35.789062 144.773438 C 35.941406 145.039062 36.113281 145.296875 36.300781 145.542969 C 36.488281 145.789062 36.691406 146.019531 36.910156 146.238281 C 37.128906 146.457031 37.359375 146.664062 37.601562 146.851562 C 37.847656 147.039062 38.101562 147.210938 38.371094 147.367188 C 38.636719 147.523438 38.914062 147.660156 39.199219 147.777344 C 39.484375 147.898438 39.773438 147.996094 40.070312 148.078125 C 40.371094 148.160156 40.671875 148.21875 40.976562 148.261719 C 41.285156 148.304688 41.589844 148.324219 41.898438 148.324219 C 42.523438 148.328125 43.136719 148.246094 43.738281 148.085938 C 44.339844 147.925781 44.910156 147.691406 45.449219 147.378906 C 45.988281 147.066406 46.480469 146.691406 46.917969 146.25 C 47.359375 145.808594 47.734375 145.320312 48.046875 144.777344 L 53.34375 135.652344 C 56.777344 137.089844 60.320312 138.175781 63.96875 138.910156 C 67.617188 139.644531 71.304688 140.011719 75.027344 140.011719 C 78.746094 140.011719 82.433594 139.644531 86.082031 138.910156 C 89.730469 138.175781 93.273438 137.089844 96.707031 135.652344 L 101.980469 144.777344 C 102.445312 145.59375 103.050781 146.289062 103.796875 146.859375 C 104.539062 147.429688 105.367188 147.835938 106.273438 148.078125 C 106.878906 148.238281 107.492188 148.320312 108.121094 148.316406 C 108.429688 148.316406 108.734375 148.296875 109.042969 148.257812 C 109.347656 148.214844 109.652344 148.15625 109.949219 148.074219 C 110.246094 147.996094 110.539062 147.894531 110.824219 147.777344 C 111.109375 147.65625 111.386719 147.519531 111.652344 147.367188 C 111.921875 147.210938 112.175781 147.039062 112.421875 146.851562 C 112.664062 146.664062 112.898438 146.460938 113.117188 146.242188 C 113.332031 146.023438 113.535156 145.789062 113.722656 145.542969 C 113.914062 145.296875 114.082031 145.042969 114.238281 144.773438 C 114.390625 144.507812 114.527344 144.230469 114.644531 143.945312 C 114.765625 143.660156 114.863281 143.367188 114.941406 143.066406 C 115.023438 142.769531 115.082031 142.46875 115.121094 142.160156 C 115.164062 141.855469 115.183594 141.546875 115.183594 141.238281 C 115.183594 140.929688 115.164062 140.621094 115.121094 140.3125 C 115.082031 140.007812 115.019531 139.707031 114.941406 139.40625 C 114.863281 139.109375 114.761719 138.816406 114.644531 138.53125 C 114.527344 138.246094 114.390625 137.96875 114.234375 137.699219 L 108.960938 128.558594 C 110.089844 127.691406 111.1875 126.789062 112.25 125.839844 C 113.308594 124.894531 114.332031 123.910156 115.320312 122.882812 C 116.308594 121.859375 117.253906 120.796875 118.160156 119.699219 C 119.066406 118.605469 119.929688 117.472656 120.746094 116.3125 C 121.566406 115.148438 122.34375 113.957031 123.070312 112.734375 C 123.800781 111.515625 124.484375 110.265625 125.117188 108.992188 C 125.753906 107.71875 126.335938 106.425781 126.875 105.105469 C 127.410156 103.789062 127.894531 102.453125 128.328125 101.097656 C 128.765625 99.742188 129.148438 98.375 129.476562 96.988281 C 129.808594 95.605469 130.085938 94.210938 130.308594 92.804688 C 130.535156 91.402344 130.707031 89.988281 130.824219 88.570312 C 130.9375 87.152344 131.003906 85.734375 131.011719 84.308594 C 131.019531 82.886719 130.976562 81.464844 130.878906 80.046875 C 130.777344 78.625 130.625 77.210938 130.417969 75.804688 C 130.214844 74.398438 129.953125 73 129.640625 71.609375 C 129.328125 70.222656 128.964844 68.847656 128.546875 67.488281 C 128.128906 66.128906 127.664062 64.785156 127.144531 63.460938 C 126.625 62.136719 126.054688 60.832031 125.4375 59.550781 C 124.820312 58.269531 124.152344 57.011719 123.441406 55.78125 C 122.726562 54.550781 121.96875 53.351562 121.164062 52.175781 C 120.359375 51.003906 119.507812 49.863281 118.617188 48.753906 C 117.726562 47.644531 116.792969 46.574219 115.820312 45.535156 C 114.847656 44.5 113.835938 43.5 112.785156 42.539062 C 111.738281 41.578125 110.652344 40.660156 109.535156 39.78125 C 108.414062 38.902344 107.265625 38.066406 106.082031 37.277344 C 104.902344 36.488281 103.691406 35.742188 102.449219 35.042969 C 101.210938 34.347656 99.949219 33.695312 98.660156 33.09375 C 97.371094 32.492188 96.0625 31.9375 94.730469 31.4375 C 93.402344 30.933594 92.054688 30.484375 90.6875 30.082031 C 89.324219 29.683594 87.945312 29.335938 86.554688 29.039062 C 85.164062 28.746094 83.765625 28.503906 82.355469 28.316406 C 80.945312 28.125 79.53125 27.992188 78.109375 27.910156 L 78.109375 17.949219 L 79.667969 17.949219 C 80.1875 17.929688 80.703125 17.863281 81.210938 17.75 C 81.71875 17.632812 82.207031 17.46875 82.683594 17.257812 C 83.160156 17.046875 83.613281 16.792969 84.039062 16.492188 C 84.464844 16.195312 84.859375 15.859375 85.21875 15.484375 C 85.582031 15.109375 85.90625 14.703125 86.1875 14.269531 C 86.472656 13.832031 86.710938 13.371094 86.90625 12.886719 C 87.101562 12.40625 87.246094 11.90625 87.347656 11.398438 C 87.445312 10.886719 87.492188 10.371094 87.492188 9.847656 C 87.492188 9.328125 87.441406 8.8125 87.339844 8.300781 C 87.242188 7.789062 87.09375 7.292969 86.898438 6.8125 C 86.699219 6.328125 86.460938 5.871094 86.175781 5.433594 C 85.890625 4.996094 85.566406 4.59375 85.203125 4.21875 C 84.839844 3.847656 84.445312 3.511719 84.019531 3.214844 C 83.589844 2.917969 83.140625 2.664062 82.664062 2.453125 C 82.1875 2.246094 81.695312 2.082031 81.1875 1.96875 C 80.679688 1.851562 80.164062 1.789062 79.644531 1.773438 L 70.296875 1.773438 C 69.777344 1.789062 69.261719 1.855469 68.753906 1.96875 C 68.246094 2.085938 67.757812 2.25 67.28125 2.457031 C 66.804688 2.667969 66.351562 2.921875 65.925781 3.21875 C 65.5 3.519531 65.105469 3.855469 64.742188 4.226562 C 64.378906 4.601562 64.054688 5.007812 63.773438 5.441406 C 63.488281 5.878906 63.25 6.339844 63.054688 6.820312 C 62.859375 7.304688 62.710938 7.800781 62.609375 8.3125 C 62.511719 8.824219 62.460938 9.339844 62.460938 9.859375 C 62.460938 10.382812 62.511719 10.898438 62.609375 11.40625 C 62.710938 11.917969 62.859375 12.414062 63.054688 12.898438 C 63.25 13.382812 63.488281 13.839844 63.773438 14.277344 C 64.054688 14.714844 64.378906 15.117188 64.742188 15.492188 C 65.105469 15.867188 65.5 16.203125 65.925781 16.5 C 66.351562 16.796875 66.804688 17.050781 67.28125 17.261719 C 67.757812 17.472656 68.246094 17.636719 68.753906 17.75 C 69.261719 17.867188 69.777344 17.933594 70.296875 17.949219 Z M 42.65625 141.660156 C 42.535156 141.863281 42.363281 141.996094 42.136719 142.054688 C 41.90625 142.117188 41.691406 142.089844 41.488281 141.972656 C 41.285156 141.855469 41.15625 141.683594 41.097656 141.457031 C 41.03125 141.234375 41.0625 141.023438 41.183594 140.828125 L 46.230469 132.074219 L 47.6875 132.921875 Z M 108.875 141.457031 C 108.816406 141.6875 108.683594 141.863281 108.476562 141.980469 C 108.273438 142.09375 108.0625 142.121094 107.839844 142.058594 C 107.613281 142 107.441406 141.867188 107.324219 141.667969 L 102.277344 132.914062 C 102.765625 132.632812 103.257812 132.351562 103.742188 132.066406 L 108.796875 140.828125 C 108.914062 141.027344 108.941406 141.234375 108.882812 141.457031 Z M 124.816406 83.921875 C 124.816406 85.554688 124.738281 87.1875 124.582031 88.8125 C 124.421875 90.4375 124.183594 92.054688 123.867188 93.65625 C 123.550781 95.261719 123.15625 96.84375 122.683594 98.410156 C 122.207031 99.972656 121.660156 101.511719 121.035156 103.023438 C 120.410156 104.53125 119.714844 106.007812 118.945312 107.449219 C 118.175781 108.894531 117.339844 110.292969 116.429688 111.652344 C 115.523438 113.011719 114.550781 114.324219 113.515625 115.585938 C 112.480469 116.851562 111.382812 118.0625 110.230469 119.214844 C 109.074219 120.371094 107.867188 121.46875 106.601562 122.503906 C 105.339844 123.542969 104.027344 124.515625 102.671875 125.421875 C 101.3125 126.328125 99.914062 127.167969 98.472656 127.9375 C 97.03125 128.707031 95.554688 129.40625 94.046875 130.03125 C 92.535156 130.65625 91 131.203125 89.4375 131.675781 C 87.871094 132.148438 86.289062 132.546875 84.6875 132.863281 C 83.085938 133.179688 81.46875 133.417969 79.84375 133.578125 C 78.21875 133.734375 76.589844 133.8125 74.957031 133.8125 C 71.210938 133.816406 67.515625 133.398438 63.867188 132.558594 C 60.21875 131.71875 56.710938 130.476562 53.34375 128.835938 C 51.101562 127.757812 48.953125 126.511719 46.902344 125.101562 C 46.019531 124.5 45.152344 123.871094 44.308594 123.214844 C 43.464844 122.558594 42.644531 121.871094 41.84375 121.164062 C 41.046875 120.453125 40.269531 119.71875 39.515625 118.957031 C 38.765625 118.195312 38.039062 117.414062 37.335938 116.605469 C 36.632812 115.796875 35.957031 114.96875 35.308594 114.117188 C 34.660156 113.269531 34.039062 112.398438 33.449219 111.507812 C 32.855469 110.617188 32.292969 109.707031 31.757812 108.78125 C 31.222656 107.855469 30.71875 106.910156 30.246094 105.953125 C 29.773438 104.992188 29.328125 104.019531 28.917969 103.03125 C 28.507812 102.042969 28.128906 101.042969 27.78125 100.03125 C 27.433594 99.019531 27.121094 97.996094 26.839844 96.964844 C 26.558594 95.933594 26.3125 94.890625 26.097656 93.84375 C 25.882812 92.792969 25.703125 91.742188 25.558594 90.679688 C 25.410156 89.621094 25.300781 88.558594 25.222656 87.488281 C 25.144531 86.421875 25.097656 85.355469 25.089844 84.285156 C 25.082031 83.214844 25.105469 82.144531 25.164062 81.078125 C 25.226562 80.007812 25.320312 78.945312 25.445312 77.882812 C 25.574219 76.820312 25.738281 75.761719 25.933594 74.710938 C 26.128906 73.660156 26.359375 72.613281 26.621094 71.578125 C 26.886719 70.539062 27.179688 69.511719 27.511719 68.492188 C 27.839844 67.476562 28.199219 66.46875 28.59375 65.476562 C 28.988281 64.480469 29.414062 63.5 29.871094 62.53125 C 30.328125 61.566406 30.816406 60.613281 31.335938 59.675781 C 31.851562 58.742188 32.398438 57.824219 32.976562 56.921875 C 33.554688 56.019531 34.160156 55.140625 34.792969 54.277344 C 35.429688 53.417969 36.089844 52.578125 36.777344 51.757812 C 37.464844 50.9375 38.179688 50.140625 38.917969 49.367188 C 39.65625 48.59375 40.417969 47.847656 41.207031 47.121094 C 41.996094 46.398438 42.804688 45.699219 43.636719 45.027344 C 44.46875 44.355469 45.320312 43.710938 46.195312 43.09375 C 47.066406 42.476562 47.960938 41.890625 48.871094 41.332031 C 49.785156 40.769531 50.710938 40.242188 51.65625 39.742188 C 52.601562 39.242188 53.5625 38.773438 54.539062 38.335938 C 55.515625 37.898438 56.503906 37.492188 57.503906 37.117188 C 58.507812 36.742188 59.519531 36.398438 60.542969 36.089844 C 61.566406 35.78125 62.597656 35.507812 63.640625 35.261719 C 64.683594 35.019531 65.730469 34.8125 66.785156 34.636719 C 67.839844 34.460938 68.898438 34.320312 69.964844 34.214844 C 71.027344 34.105469 72.09375 34.035156 73.164062 33.996094 C 74.230469 33.957031 75.300781 33.953125 76.367188 33.984375 C 77.4375 34.015625 78.503906 34.078125 79.570312 34.179688 C 80.632812 34.277344 81.695312 34.410156 82.75 34.578125 C 83.804688 34.746094 84.855469 34.945312 85.898438 35.183594 C 86.941406 35.417969 87.976562 35.683594 89.003906 35.988281 C 90.027344 36.289062 91.042969 36.621094 92.046875 36.988281 C 93.054688 37.355469 94.042969 37.753906 95.023438 38.1875 C 96.003906 38.617188 96.964844 39.078125 97.914062 39.570312 C 98.863281 40.066406 99.796875 40.589844 100.710938 41.140625 C 101.628906 41.695312 102.523438 42.277344 103.402344 42.886719 C 104.28125 43.496094 105.136719 44.136719 105.976562 44.800781 C 106.8125 45.464844 107.628906 46.160156 108.417969 46.878906 C 109.210938 47.59375 109.980469 48.339844 110.726562 49.105469 C 111.46875 49.875 112.191406 50.664062 112.882812 51.480469 C 113.578125 52.292969 114.246094 53.128906 114.882812 53.984375 C 115.523438 54.84375 116.136719 55.71875 116.71875 56.617188 C 117.304688 57.511719 117.859375 58.425781 118.382812 59.359375 C 118.910156 60.292969 119.402344 61.238281 119.867188 62.203125 C 120.332031 63.167969 120.765625 64.144531 121.164062 65.136719 C 121.566406 66.128906 121.933594 67.132812 122.273438 68.148438 C 122.609375 69.164062 122.910156 70.1875 123.183594 71.222656 C 123.453125 72.257812 123.691406 73.300781 123.894531 74.351562 C 124.097656 75.402344 124.265625 76.457031 124.402344 77.519531 C 124.539062 78.582031 124.640625 79.644531 124.707031 80.714844 C 124.773438 81.78125 124.808594 82.851562 124.808594 83.921875 Z M 70.335938 8.007812 L 79.683594 8.007812 C 79.917969 8.023438 80.144531 8.082031 80.355469 8.183594 C 80.570312 8.285156 80.757812 8.417969 80.917969 8.589844 C 81.078125 8.761719 81.203125 8.957031 81.289062 9.179688 C 81.375 9.398438 81.417969 9.625 81.417969 9.859375 C 81.417969 10.097656 81.375 10.324219 81.289062 10.542969 C 81.203125 10.761719 81.078125 10.957031 80.917969 11.128906 C 80.757812 11.300781 80.570312 11.4375 80.355469 11.539062 C 80.144531 11.636719 79.917969 11.695312 79.683594 11.710938 L 70.335938 11.710938 C 70.101562 11.695312 69.875 11.636719 69.664062 11.539062 C 69.449219 11.4375 69.265625 11.300781 69.101562 11.128906 C 68.941406 10.957031 68.816406 10.761719 68.730469 10.542969 C 68.644531 10.324219 68.601562 10.097656 68.601562 9.859375 C 68.601562 9.625 68.644531 9.398438 68.730469 9.179688 C 68.816406 8.957031 68.941406 8.761719 69.101562 8.589844 C 69.265625 8.417969 69.449219 8.285156 69.664062 8.183594 C 69.875 8.082031 70.101562 8.023438 70.335938 8.007812 Z M 70.335938 8.007812 " fill-opacity="1" fill-rule="nonzero"/></g><path fill="#000000" d="M 133.859375 51.78125 C 134.304688 51.335938 134.726562 50.867188 135.125 50.378906 C 135.523438 49.894531 135.894531 49.386719 136.246094 48.863281 C 136.59375 48.339844 136.914062 47.800781 137.210938 47.246094 C 137.507812 46.691406 137.777344 46.121094 138.015625 45.539062 C 138.257812 44.957031 138.46875 44.367188 138.648438 43.765625 C 138.832031 43.160156 138.984375 42.550781 139.105469 41.933594 C 139.230469 41.316406 139.320312 40.695312 139.382812 40.070312 C 139.445312 39.441406 139.476562 38.8125 139.476562 38.183594 C 139.476562 37.554688 139.445312 36.925781 139.382812 36.300781 C 139.320312 35.675781 139.230469 35.050781 139.105469 34.433594 C 138.984375 33.816406 138.832031 33.207031 138.648438 32.605469 C 138.46875 32.003906 138.257812 31.410156 138.015625 30.828125 C 137.777344 30.246094 137.507812 29.679688 137.210938 29.125 C 136.914062 28.566406 136.59375 28.027344 136.246094 27.503906 C 135.894531 26.980469 135.523438 26.476562 135.125 25.988281 C 134.726562 25.5 134.304688 25.035156 133.859375 24.589844 L 128.320312 19.046875 C 127.875 18.601562 127.410156 18.179688 126.921875 17.78125 C 126.4375 17.382812 125.929688 17.007812 125.40625 16.660156 C 124.882812 16.308594 124.34375 15.988281 123.789062 15.691406 C 123.234375 15.394531 122.667969 15.125 122.085938 14.886719 C 121.503906 14.644531 120.910156 14.433594 120.308594 14.25 C 119.707031 14.066406 119.097656 13.914062 118.480469 13.792969 C 117.863281 13.671875 117.242188 13.578125 116.617188 13.515625 C 115.992188 13.453125 115.363281 13.425781 114.734375 13.425781 C 114.105469 13.425781 113.476562 13.453125 112.851562 13.515625 C 112.226562 13.578125 111.601562 13.671875 110.984375 13.792969 C 110.367188 13.914062 109.757812 14.066406 109.15625 14.25 C 108.554688 14.433594 107.964844 14.644531 107.382812 14.886719 C 106.800781 15.125 106.234375 15.394531 105.675781 15.691406 C 105.121094 15.988281 104.582031 16.308594 104.058594 16.660156 C 103.535156 17.007812 103.03125 17.382812 102.546875 17.78125 C 102.058594 18.179688 101.59375 18.601562 101.148438 19.046875 L 98.941406 21.261719 L 131.664062 54 Z M 108.027344 21.519531 C 108.644531 21.148438 109.285156 20.828125 109.957031 20.566406 C 110.625 20.300781 111.3125 20.09375 112.015625 19.945312 C 112.722656 19.792969 113.433594 19.703125 114.152344 19.671875 C 114.871094 19.640625 115.585938 19.667969 116.300781 19.753906 C 117.015625 19.839844 117.71875 19.988281 118.410156 20.191406 C 119.101562 20.394531 119.769531 20.65625 120.417969 20.96875 C 121.0625 21.285156 121.679688 21.652344 122.265625 22.070312 C 122.851562 22.488281 123.402344 22.949219 123.910156 23.460938 L 129.449219 28.992188 C 129.957031 29.503906 130.421875 30.054688 130.839844 30.640625 C 131.257812 31.226562 131.621094 31.84375 131.9375 32.492188 C 132.25 33.140625 132.511719 33.8125 132.714844 34.503906 C 132.917969 35.191406 133.066406 35.894531 133.152344 36.613281 C 133.238281 37.328125 133.265625 38.042969 133.234375 38.765625 C 133.203125 39.484375 133.113281 40.195312 132.960938 40.902344 C 132.8125 41.605469 132.605469 42.292969 132.34375 42.964844 C 132.078125 43.632812 131.761719 44.277344 131.390625 44.898438 Z M 108.027344 21.519531 " fill-opacity="1" fill-rule="nonzero"/><path fill="#000000" d="M 18.328125 54 L 51.007812 21.261719 L 48.800781 19.054688 C 48.355469 18.609375 47.890625 18.1875 47.40625 17.789062 C 46.917969 17.390625 46.414062 17.015625 45.890625 16.667969 C 45.367188 16.316406 44.828125 15.996094 44.273438 15.699219 C 43.71875 15.402344 43.148438 15.132812 42.566406 14.894531 C 41.984375 14.652344 41.394531 14.441406 40.792969 14.257812 C 40.191406 14.074219 39.582031 13.921875 38.964844 13.800781 C 38.347656 13.679688 37.726562 13.585938 37.097656 13.523438 C 36.472656 13.460938 35.84375 13.433594 35.214844 13.433594 C 34.585938 13.433594 33.960938 13.460938 33.332031 13.523438 C 32.707031 13.585938 32.085938 13.679688 31.46875 13.800781 C 30.851562 13.921875 30.242188 14.074219 29.640625 14.257812 C 29.039062 14.441406 28.445312 14.652344 27.863281 14.894531 C 27.285156 15.132812 26.714844 15.402344 26.160156 15.699219 C 25.605469 15.996094 25.066406 16.316406 24.542969 16.667969 C 24.019531 17.015625 23.515625 17.390625 23.027344 17.789062 C 22.539062 18.1875 22.074219 18.609375 21.628906 19.054688 L 16.121094 24.589844 C 15.675781 25.035156 15.257812 25.5 14.859375 25.988281 C 14.460938 26.476562 14.085938 26.980469 13.738281 27.503906 C 13.386719 28.027344 13.066406 28.566406 12.769531 29.125 C 12.472656 29.679688 12.207031 30.246094 11.964844 30.828125 C 11.722656 31.410156 11.511719 32.003906 11.332031 32.605469 C 11.148438 33.207031 10.996094 33.816406 10.875 34.433594 C 10.75 35.050781 10.660156 35.675781 10.597656 36.300781 C 10.535156 36.925781 10.503906 37.554688 10.503906 38.183594 C 10.503906 38.8125 10.535156 39.441406 10.597656 40.070312 C 10.660156 40.695312 10.75 41.316406 10.875 41.933594 C 10.996094 42.550781 11.148438 43.160156 11.332031 43.765625 C 11.511719 44.367188 11.722656 44.957031 11.964844 45.539062 C 12.207031 46.121094 12.472656 46.691406 12.769531 47.246094 C 13.066406 47.800781 13.386719 48.339844 13.738281 48.863281 C 14.085938 49.386719 14.460938 49.894531 14.859375 50.378906 C 15.257812 50.867188 15.675781 51.335938 16.121094 51.78125 Z M 20.53125 29.007812 L 26.078125 23.460938 C 26.585938 22.949219 27.136719 22.488281 27.722656 22.070312 C 28.308594 21.652344 28.925781 21.285156 29.570312 20.96875 C 30.21875 20.652344 30.886719 20.394531 31.578125 20.1875 C 32.269531 19.984375 32.972656 19.839844 33.6875 19.75 C 34.402344 19.664062 35.117188 19.636719 35.835938 19.667969 C 36.554688 19.699219 37.269531 19.792969 37.972656 19.941406 C 38.675781 20.09375 39.363281 20.300781 40.03125 20.5625 C 40.703125 20.828125 41.347656 21.148438 41.960938 21.519531 L 18.589844 44.90625 C 18.21875 44.285156 17.902344 43.640625 17.636719 42.972656 C 17.371094 42.300781 17.164062 41.613281 17.015625 40.90625 C 16.863281 40.203125 16.773438 39.488281 16.742188 38.769531 C 16.710938 38.050781 16.738281 37.332031 16.824219 36.613281 C 16.910156 35.898438 17.058594 35.195312 17.261719 34.503906 C 17.464844 33.8125 17.726562 33.140625 18.039062 32.492188 C 18.355469 31.847656 18.722656 31.226562 19.140625 30.640625 C 19.558594 30.054688 20.023438 29.503906 20.53125 28.992188 Z M 20.53125 29.007812 " fill-opacity="1" fill-rule="nonzero"/></svg>