<?xml version="1.0" standalone="no"?>
<!DOCTYPE svg PUBLIC "-//W3C//DTD SVG 20010904//EN"
 "http://www.w3.org/TR/2001/REC-SVG-20010904/DTD/svg10.dtd">
<svg version="1.0" xmlns="http://www.w3.org/2000/svg"
 width="64.000000pt" height="64.000000pt" viewBox="0 0 64.000000 64.000000"
 preserveAspectRatio="xMidYMid meet">

<g transform="translate(0.000000,64.000000) scale(0.100000,-0.100000)"
fill="#000000" stroke="none">
<path d="M216 604 c-71 -22 -159 -112 -180 -184 -34 -115 -12 -206 73 -291 85
-85 176 -107 291 -73 75 22 162 109 184 184 34 115 12 206 -73 291 -85 84
-180 108 -295 73z m213 -35 c201 -101 201 -377 0 -478 -85 -43 -153 -43 -238
0 -216 108 -196 407 34 496 59 22 136 16 204 -18z"/>
<path d="M239 546 c-56 -20 -96 -53 -126 -104 -23 -38 -28 -59 -28 -113 0 -56
5 -73 30 -115 19 -30 49 -60 79 -79 71 -43 161 -43 232 0 30 19 60 49 79 79
25 42 30 59 30 115 0 54 -5 75 -27 112 -29 50 -55 76 -65 65 -4 -3 5 -19 20
-34 100 -104 61 -280 -75 -336 -102 -43 -221 6 -269 109 -62 134 42 295 191
295 22 0 40 5 40 10 0 14 -68 12 -111 -4z"/>
<path d="M385 530 c3 -5 13 -10 21 -10 8 0 12 5 9 10 -3 6 -13 10 -21 10 -8 0
-12 -4 -9 -10z"/>
<path d="M300 480 c0 -11 5 -20 10 -20 6 0 10 9 10 20 0 11 -4 20 -10 20 -5 0
-10 -9 -10 -20z"/>
<path d="M355 471 c-3 -5 -1 -12 4 -15 5 -3 11 1 15 9 6 16 -9 21 -19 6z"/>
<path d="M405 439 c-11 -17 1 -21 15 -4 8 9 8 15 2 15 -6 0 -14 -5 -17 -11z"/>
<path d="M299 390 c-1 -27 -2 -53 -3 -58 -2 -12 84 -86 91 -79 3 4 -11 25 -31
47 -31 35 -36 47 -36 90 0 65 -20 65 -21 0z"/>
<path d="M430 390 c0 -5 7 -10 15 -10 8 0 15 5 15 10 0 6 -7 10 -15 10 -8 0
-15 -4 -15 -10z"/>
<path d="M140 330 c0 -5 9 -10 20 -10 11 0 20 5 20 10 0 6 -9 10 -20 10 -11 0
-20 -4 -20 -10z"/>
<path d="M440 330 c0 -5 9 -10 20 -10 11 0 20 5 20 10 0 6 -9 10 -20 10 -11 0
-20 -4 -20 -10z"/>
<path d="M435 281 c-3 -5 2 -11 10 -15 8 -3 17 -1 20 3 3 5 -2 11 -10 15 -8 3
-17 1 -20 -3z"/>
<path d="M402 229 c2 -7 10 -15 17 -17 8 -3 12 1 9 9 -2 7 -10 15 -17 17 -8 3
-12 -1 -9 -9z"/>
<path d="M300 180 c0 -11 5 -20 10 -20 6 0 10 9 10 20 0 11 -4 20 -10 20 -5 0
-10 -9 -10 -20z"/>
</g>
</svg>
