<svg width="48" height="48" viewBox="0 0 48 48" fill="none" xmlns="http://www.w3.org/2000/svg">
<path d="M45.5625 42.9844H2.4375C1.40039 42.9844 0.5625 43.8223 0.5625 44.8594V46.9688C0.5625 47.2266 0.773438 47.4375 1.03125 47.4375H46.9688C47.2266 47.4375 47.4375 47.2266 47.4375 46.9688V44.8594C47.4375 43.8223 46.5996 42.9844 45.5625 42.9844ZM9.09961 38.0625C9.2168 38.0625 9.33399 38.0508 9.45117 38.0332L19.3066 36.3047C19.4238 36.2812 19.5352 36.2285 19.6172 36.1406L44.4551 11.3027C44.5094 11.2485 44.5525 11.1841 44.5819 11.1133C44.6113 11.0424 44.6264 10.9664 44.6264 10.8896C44.6264 10.8129 44.6113 10.7369 44.5819 10.666C44.5525 10.5952 44.5094 10.5308 44.4551 10.4766L34.7168 0.732422C34.6055 0.621094 34.459 0.5625 34.3008 0.5625C34.1426 0.5625 33.9961 0.621094 33.8848 0.732422L9.04687 25.5703C8.95898 25.6582 8.90625 25.7637 8.88281 25.8809L7.1543 35.7363C7.0973 36.0502 7.11766 36.3733 7.21363 36.6775C7.30961 36.9818 7.47829 37.258 7.70508 37.4824C8.0918 37.8574 8.57813 38.0625 9.09961 38.0625Z" fill="black"/>
</svg>
