<?xml version="1.0" standalone="no"?>
<!DOCTYPE svg PUBLIC "-//W3C//DTD SVG 20010904//EN"
 "http://www.w3.org/TR/2001/REC-SVG-20010904/DTD/svg10.dtd">
<svg version="1.0" xmlns="http://www.w3.org/2000/svg"
 width="200.000000pt" height="200.000000pt" viewBox="0 0 200.000000 200.000000"
 preserveAspectRatio="xMidYMid meet">

<g transform="translate(0.000000,200.000000) scale(0.100000,-0.100000)"
fill="#000000" stroke="none">
<path d="M982 1961 c-9 -5 -12 -25 -10 -62 3 -50 5 -54 28 -54 23 0 25 4 28
48 4 61 -14 89 -46 68z"/>
<path d="M933 1801 c-58 -15 -124 -61 -154 -109 -72 -114 -65 -232 22 -337 49
-59 55 -74 69 -163 6 -37 15 -71 19 -75 12 -12 211 -11 223 1 5 5 13 39 19 76
11 80 26 115 78 180 108 135 64 328 -92 407 -44 23 -134 33 -184 20z m166 -81
c44 -22 83 -68 100 -119 24 -72 7 -144 -49 -207 -44 -51 -69 -105 -76 -168
l-7 -56 -67 0 -67 0 -6 54 c-6 60 -33 119 -77 170 -81 92 -79 208 6 292 65 66
157 78 243 34z"/>
<path d="M637 1763 c-18 -18 -4 -44 38 -69 37 -21 48 -24 60 -14 24 20 18 37
-22 65 -37 25 -63 31 -76 18z"/>
<path d="M1287 1745 c-39 -27 -46 -45 -23 -64 16 -13 35 -7 88 31 23 16 26 23
18 39 -14 26 -38 24 -83 -6z"/>
<path d="M668 1388 c-38 -22 -47 -45 -27 -65 9 -9 24 -6 61 13 39 20 49 29 46
47 -4 30 -35 32 -80 5z"/>
<path d="M1254 1395 c-10 -24 0 -36 45 -61 49 -26 71 -22 71 12 0 17 -10 29
-40 44 -47 24 -69 25 -76 5z"/>
<path d="M1560 1129 c-82 -34 -130 -107 -130 -199 0 -69 29 -123 87 -164 90
-63 225 -37 289 56 25 36 29 50 29 113 0 83 -23 127 -90 172 -44 30 -139 41
-185 22z m164 -83 c86 -65 66 -200 -36 -241 -130 -52 -252 91 -175 206 48 72
142 88 211 35z"/>
<path d="M270 1108 c-25 -14 -58 -44 -75 -67 -27 -38 -30 -51 -30 -115 0 -84
22 -127 90 -174 34 -23 50 -27 112 -27 63 0 76 3 115 30 85 59 115 179 66 267
-54 98 -182 137 -278 86z m160 -56 c96 -48 108 -180 22 -241 -99 -70 -241 8
-229 126 11 103 115 161 207 115z"/>
<path d="M892 1037 c-26 -27 -28 -64 -6 -95 14 -20 23 -22 113 -22 110 0 131
11 131 68 0 57 -27 72 -128 72 -80 0 -91 -2 -110 -23z m183 -52 c0 -5 -33 -11
-72 -13 -61 -2 -73 0 -73 13 0 13 12 15 73 13 39 -2 72 -7 72 -13z"/>
<path d="M914 771 c-52 -24 -99 -81 -113 -138 -42 -166 128 -305 285 -234 50
23 81 53 105 106 77 166 -107 343 -277 266z m139 -55 c43 -17 85 -68 93 -111
13 -73 -65 -165 -140 -165 -127 0 -196 152 -110 241 43 45 102 58 157 35z"/>
<path d="M1560 640 c-127 -27 -246 -134 -284 -257 l-7 -23 365 0 c201 0 366 3
366 6 0 3 -14 35 -30 69 -71 149 -249 238 -410 205z m162 -70 c48 -14 125 -67
156 -107 l25 -33 -268 0 -268 0 25 33 c29 38 108 93 152 106 43 13 134 13 178
1z"/>
<path d="M294 630 c-111 -23 -203 -94 -258 -199 -20 -38 -36 -72 -36 -75 0 -3
165 -6 366 -6 l365 0 -6 23 c-29 94 -129 202 -219 236 -64 24 -156 33 -212 21z
m179 -76 c46 -16 129 -80 148 -115 9 -18 2 -19 -257 -19 l-267 0 25 33 c29 38
108 93 152 106 50 15 149 12 199 -5z"/>
<path d="M941 288 c-77 -12 -133 -40 -192 -95 -45 -42 -109 -143 -109 -173 0
-7 120 -10 360 -10 241 0 360 3 360 10 0 6 -7 26 -15 46 -65 156 -235 250
-404 222z m157 -73 c53 -16 162 -104 162 -131 0 -11 -47 -13 -260 -13 -160 0
-260 3 -260 9 0 6 17 28 37 51 80 88 200 120 321 84z"/>
</g>
</svg>
