<?xml version="1.0" standalone="no"?>
<!DOCTYPE svg PUBLIC "-//W3C//DTD SVG 20010904//EN"
 "http://www.w3.org/TR/2001/REC-SVG-20010904/DTD/svg10.dtd">
<svg version="1.0" xmlns="http://www.w3.org/2000/svg"
 width="68.000000pt" height="68.000000pt" viewBox="0 0 68.000000 68.000000"
 preserveAspectRatio="xMidYMid meet">

<g transform="translate(0.000000,68.000000) scale(0.100000,-0.100000)"
fill="#000000" stroke="none">
<path d="M430 631 c-16 -16 -32 -26 -35 -23 -3 3 -19 -4 -35 -16 -16 -12 -34
-22 -41 -22 -6 0 -23 -13 -39 -30 -26 -28 -32 -29 -121 -32 l-94 -3 -5 -185
c-4 -151 -8 -193 -24 -228 -32 -73 -36 -72 299 -72 337 0 328 -3 295 79 -17
44 -20 75 -20 207 0 140 2 159 20 184 32 45 35 81 9 114 -19 24 -28 27 -59 23
-26 -3 -42 1 -59 14 -32 26 -58 24 -91 -10z m93 -17 c16 -17 27 -22 31 -15 12
19 64 13 76 -8 25 -48 -6 -100 -84 -141 -52 -28 -64 -22 -98 44 -27 54 -29
113 -3 132 28 21 51 17 78 -12z m-113 -64 c4 -20 9 -41 13 -47 12 -20 -11 -63
-33 -63 -20 0 -100 36 -100 44 0 3 -3 11 -6 19 -7 20 24 49 45 42 12 -4 21 3
29 21 17 36 45 28 52 -16z m-142 -62 c23 -23 11 -28 -73 -28 l-85 0 0 -130 0
-130 225 0 225 0 0 119 c0 96 3 120 15 125 13 5 15 -14 15 -134 l0 -140 -255
0 -255 0 0 158 c0 87 3 162 7 165 12 12 168 8 181 -5z m245 -74 l27 6 0 -100
0 -100 -205 0 -205 0 0 116 0 116 98 -5 c53 -3 117 -11 141 -18 42 -13 44 -13
59 9 l15 23 22 -27 c17 -22 27 -26 48 -20z m91 -297 c34 -83 41 -77 -88 -77
-105 0 -116 2 -126 20 -8 16 -21 20 -59 20 -40 0 -50 -3 -54 -20 -5 -19 -14
-20 -121 -20 -64 0 -116 4 -116 9 0 5 9 30 20 55 l19 46 256 0 255 0 14 -33z
m-229 -67 c4 -6 -12 -10 -39 -10 -25 0 -46 5 -46 10 0 6 18 10 39 10 22 0 43
-4 46 -10z"/>
</g>
</svg>
