<?xml version="1.0" standalone="no"?>
<!DOCTYPE svg PUBLIC "-//W3C//DTD SVG 20010904//EN"
 "http://www.w3.org/TR/2001/REC-SVG-20010904/DTD/svg10.dtd">
<svg version="1.0" xmlns="http://www.w3.org/2000/svg"
 width="68.000000pt" height="68.000000pt" viewBox="0 0 68.000000 68.000000"
 preserveAspectRatio="xMidYMid meet">

<g transform="translate(0.000000,68.000000) scale(0.100000,-0.100000)"
fill="#000000" stroke="none">
<path d="M113 663 c-7 -2 -13 -18 -13 -34 0 -25 -4 -29 -29 -29 -60 0 -61 -5
-61 -299 0 -194 3 -270 12 -279 17 -17 619 -17 636 0 9 9 12 85 12 279 0 294
-1 299 -61 299 -25 0 -29 4 -29 29 0 16 -6 31 -15 35 -26 10 -45 -5 -45 -35
l0 -29 -75 0 -75 0 0 29 c0 30 -19 45 -45 35 -9 -4 -15 -19 -15 -35 l0 -29
-75 0 -75 0 0 29 c0 17 -6 31 -16 35 -9 3 -16 6 -17 5 -1 0 -8 -3 -14 -6z m32
-69 c0 -37 -4 -49 -15 -49 -16 0 -27 63 -16 92 12 31 31 6 31 -43z m210 0 c0
-37 -4 -49 -15 -49 -16 0 -27 63 -16 92 12 31 31 6 31 -43z m210 0 c0 -37 -4
-49 -15 -49 -16 0 -27 63 -16 92 12 31 31 6 31 -43z m-465 -38 c0 -13 7 -26
15 -30 25 -9 45 4 45 30 0 23 3 24 75 24 72 0 75 -1 75 -24 0 -13 7 -26 15
-30 25 -9 45 4 45 30 0 23 3 24 75 24 72 0 75 -1 75 -24 0 -13 7 -26 15 -30
25 -9 45 5 45 31 0 21 4 24 33 21 l32 -3 3 -234 c2 -181 -1 -236 -10 -243 -15
-9 -568 -11 -592 -2 -14 5 -16 36 -16 238 0 128 3 236 7 239 3 4 19 7 35 7 23
0 28 -4 28 -24z m548 -498 l-3 -23 -305 0 -305 0 -3 23 -3 22 311 0 311 0 -3
-22z"/>
<path d="M250 427 c-37 -19 -54 -56 -46 -101 8 -41 63 -109 108 -132 25 -13
31 -13 56 0 45 23 100 91 108 132 13 71 -46 129 -107 104 -23 -10 -36 -10 -55
-1 -31 14 -33 14 -64 -2z m68 -23 c20 -14 24 -14 44 0 31 22 54 20 79 -5 42
-42 7 -134 -67 -180 l-35 -22 -42 30 c-71 52 -98 132 -57 173 24 24 48 25 78
4z"/>
</g>
</svg>
