<?xml version="1.0" standalone="no"?>
<!DOCTYPE svg PUBLIC "-//W3C//DTD SVG 20010904//EN"
 "http://www.w3.org/TR/2001/REC-SVG-20010904/DTD/svg10.dtd">
<svg version="1.0" xmlns="http://www.w3.org/2000/svg"
 width="200.000000pt" height="200.000000pt" viewBox="0 0 200.000000 200.000000"
 preserveAspectRatio="xMidYMid meet">

<g transform="translate(0.000000,200.000000) scale(0.100000,-0.100000)"
fill="#000000" stroke="none">
<path d="M813 1845 c-171 -39 -302 -115 -434 -252 -100 -104 -157 -195 -200
-324 -28 -82 -33 -111 -37 -230 -3 -103 0 -156 12 -219 64 -314 318 -579 631
-660 111 -29 317 -29 431 0 311 79 578 359 633 666 31 168 7 386 -58 528 -103
227 -326 419 -561 481 -88 24 -332 29 -417 10z m412 -75 c227 -72 389 -209
489 -414 65 -132 86 -219 86 -356 0 -328 -188 -612 -490 -741 -202 -86 -446
-80 -647 16 -181 85 -303 207 -387 386 -58 121 -71 186 -71 344 0 119 4 151
23 215 94 297 307 495 612 566 87 21 298 12 385 -16z"/>
<path d="M695 1378 c-15 -14 -28 -38 -31 -59 -5 -28 -1 -41 21 -67 48 -58 137
-38 159 35 9 28 -16 88 -42 102 -33 18 -79 13 -107 -11z"/>
<path d="M1205 1388 c-32 -19 -44 -40 -45 -81 0 -52 35 -87 87 -87 42 1 63 13
81 47 41 77 -47 164 -123 121z"/>
<path d="M450 953 c0 -152 102 -323 252 -422 170 -114 422 -115 593 -3 150 99
238 240 260 415 l7 58 -34 -3 c-32 -3 -33 -4 -40 -63 -13 -119 -55 -200 -150
-291 -103 -99 -198 -138 -338 -136 -100 1 -187 25 -259 71 -59 38 -138 120
-174 181 -30 52 -57 147 -57 202 0 36 -2 38 -30 38 -29 0 -30 -1 -30 -47z"/>
</g>
</svg>
