<svg width="28" height="31" viewBox="0 0 28 31" fill="none" xmlns="http://www.w3.org/2000/svg">
<path d="M3.0754 31H24.6032C26.2993 31 27.6786 29.6096 27.6786 27.9V4.65C27.6786 2.94035 26.2993 1.55 24.6032 1.55H21.5278C21.5278 1.13891 21.3658 0.744666 21.0774 0.453984C20.789 0.163303 20.3979 0 19.9901 0H7.68849C7.28067 0 6.88955 0.163303 6.60118 0.453984C6.3128 0.744666 6.15079 1.13891 6.15079 1.55H3.0754C1.37932 1.55 0 2.94035 0 4.65V27.9C0 29.6096 1.37932 31 3.0754 31ZM3.0754 4.65H6.15079V7.75H21.5278V4.65H24.6032V27.9H3.0754V4.65Z" fill="#2C2661"/>
<path d="M12.2604 17.8869L9.42924 15.1885L7.19653 17.3165L12.2604 22.1429L20.4822 14.3066L18.2495 12.1786L12.2604 17.8869Z" fill="#2C2661"/>
</svg>
