<svg xmlns="http://www.w3.org/2000/svg" xmlns:xlink="http://www.w3.org/1999/xlink" width="600" zoomAndPan="magnify" viewBox="0 0 450 299.999988" height="400" preserveAspectRatio="xMidYMid meet" version="1.0"><defs><g/><clipPath id="980af494bd"><path d="M 12.085938 45.980469 L 295.972656 45.980469 L 295.972656 241.480469 L 12.085938 241.480469 Z M 12.085938 45.980469 " clip-rule="nonzero"/></clipPath><clipPath id="00919bb5bc"><path d="M 295.972656 241.1875 L 12.085938 216.371094 L 12.085938 45.980469 L 295.972656 70.796875 Z M 295.972656 241.1875 " clip-rule="nonzero"/></clipPath><clipPath id="1d39854748"><path d="M 154.027344 58.8125 L 437.914062 58.8125 L 437.914062 254.3125 L 154.027344 254.3125 Z M 154.027344 58.8125 " clip-rule="nonzero"/></clipPath><clipPath id="49deeecd0c"><path d="M 437.914062 254.019531 L 154.027344 229.203125 L 154.027344 58.8125 L 437.914062 83.628906 Z M 437.914062 254.019531 " clip-rule="nonzero"/></clipPath></defs><g clip-path="url(#980af494bd)"><g clip-path="url(#00919bb5bc)"><path fill="#ff5757" d="M 12.085938 45.980469 L 295.972656 45.980469 L 295.972656 241.480469 L 12.085938 241.480469 Z M 12.085938 45.980469 " fill-opacity="1" fill-rule="nonzero"/></g></g><g clip-path="url(#1d39854748)"><g clip-path="url(#49deeecd0c)"><path fill="#ff5757" d="M 154.027344 58.8125 L 437.914062 58.8125 L 437.914062 254.3125 L 154.027344 254.3125 Z M 154.027344 58.8125 " fill-opacity="1" fill-rule="nonzero"/></g></g><g fill="#ffffff" fill-opacity="0.4"><g transform="translate(161.797104, 146.049625)"><g><path d="M 14.921875 0.578125 C 10.804688 0.578125 7.550781 -0.484375 5.15625 -2.609375 C 2.769531 -4.742188 1.578125 -7.578125 1.578125 -11.109375 C 1.578125 -11.453125 1.625 -12.050781 1.71875 -12.90625 L 2.015625 -15.125 C 2.054688 -15.46875 2.179688 -15.734375 2.390625 -15.921875 C 2.609375 -16.109375 2.863281 -16.203125 3.15625 -16.203125 L 14.0625 -16.203125 C 14.34375 -16.203125 14.566406 -16.109375 14.734375 -15.921875 C 14.898438 -15.734375 14.960938 -15.46875 14.921875 -15.125 L 14.78125 -13.5625 C 14.675781 -12.789062 14.765625 -12.164062 15.046875 -11.6875 C 15.335938 -11.207031 15.773438 -10.96875 16.359375 -10.96875 C 16.972656 -10.96875 17.492188 -11.226562 17.921875 -11.75 C 18.359375 -12.28125 18.578125 -12.929688 18.578125 -13.703125 C 18.578125 -14.421875 18.226562 -15.160156 17.53125 -15.921875 C 16.84375 -16.679688 15.519531 -17.851562 13.5625 -19.4375 C 11.644531 -21.007812 10.0625 -22.40625 8.8125 -23.625 C 7.570312 -24.84375 6.5 -26.347656 5.59375 -28.140625 C 4.6875 -29.941406 4.234375 -31.988281 4.234375 -34.28125 C 4.234375 -34.707031 4.28125 -35.445312 4.375 -36.5 C 4.894531 -40.757812 6.660156 -44.203125 9.671875 -46.828125 C 12.691406 -49.460938 16.445312 -50.78125 20.9375 -50.78125 C 25.050781 -50.78125 28.289062 -49.675781 30.65625 -47.46875 C 33.019531 -45.269531 34.203125 -42.304688 34.203125 -38.578125 C 34.203125 -38.148438 34.15625 -37.457031 34.0625 -36.5 L 33.84375 -34.921875 C 33.800781 -34.585938 33.671875 -34.320312 33.453125 -34.125 C 33.242188 -33.9375 32.992188 -33.84375 32.703125 -33.84375 L 21.875 -33.84375 C 21.582031 -33.84375 21.351562 -33.9375 21.1875 -34.125 C 21.019531 -34.320312 20.960938 -34.585938 21.015625 -34.921875 L 21.234375 -36.796875 C 21.273438 -37.515625 21.140625 -38.097656 20.828125 -38.546875 C 20.523438 -39.003906 20.082031 -39.234375 19.5 -39.234375 C 18.832031 -39.234375 18.285156 -38.945312 17.859375 -38.375 C 17.429688 -37.800781 17.21875 -37.035156 17.21875 -36.078125 C 17.21875 -35.265625 17.550781 -34.425781 18.21875 -33.5625 C 18.882812 -32.695312 20.128906 -31.503906 21.953125 -29.984375 C 24.390625 -27.921875 26.25 -26.253906 27.53125 -24.984375 C 28.820312 -23.722656 29.835938 -22.335938 30.578125 -20.828125 C 31.328125 -19.328125 31.703125 -17.617188 31.703125 -15.703125 C 31.703125 -15.316406 31.65625 -14.648438 31.5625 -13.703125 C 30.988281 -9.347656 29.179688 -5.878906 26.140625 -3.296875 C 23.109375 -0.710938 19.367188 0.578125 14.921875 0.578125 Z M 14.921875 0.578125 "/></g></g></g><g fill="#ffffff" fill-opacity="0.4"><g transform="translate(193.996387, 146.049625)"><g><path d="M 33.140625 -39.734375 C 33.085938 -39.398438 32.953125 -39.132812 32.734375 -38.9375 C 32.523438 -38.75 32.253906 -38.65625 31.921875 -38.65625 L 18.578125 -38.65625 C 18.335938 -38.65625 18.21875 -38.535156 18.21875 -38.296875 L 17.359375 -31.265625 C 17.265625 -31.023438 17.359375 -30.90625 17.640625 -30.90625 L 24.59375 -30.90625 C 24.925781 -30.90625 25.175781 -30.8125 25.34375 -30.625 C 25.519531 -30.4375 25.582031 -30.171875 25.53125 -29.828125 L 24.390625 -20.4375 C 24.242188 -19.71875 23.835938 -19.359375 23.171875 -19.359375 L 16.203125 -19.359375 C 15.960938 -19.359375 15.84375 -19.238281 15.84375 -19 L 14.984375 -11.90625 C 14.890625 -11.664062 14.988281 -11.546875 15.28125 -11.546875 L 28.609375 -11.546875 C 28.953125 -11.546875 29.207031 -11.445312 29.375 -11.25 C 29.539062 -11.0625 29.597656 -10.800781 29.546875 -10.46875 L 28.40625 -1.078125 C 28.351562 -0.742188 28.21875 -0.476562 28 -0.28125 C 27.789062 -0.09375 27.519531 0 27.1875 0 L 1.4375 0 C 1.144531 0 0.914062 -0.09375 0.75 -0.28125 C 0.582031 -0.476562 0.523438 -0.742188 0.578125 -1.078125 L 6.453125 -49.125 C 6.503906 -49.457031 6.632812 -49.71875 6.84375 -49.90625 C 7.0625 -50.101562 7.316406 -50.203125 7.609375 -50.203125 L 33.34375 -50.203125 C 33.675781 -50.203125 33.925781 -50.101562 34.09375 -49.90625 C 34.269531 -49.71875 34.332031 -49.457031 34.28125 -49.125 Z M 33.140625 -39.734375 "/></g></g></g><g fill="#ffffff" fill-opacity="0.4"><g transform="translate(224.904823, 146.049625)"><g><path d="M 14.203125 0.578125 C 10.085938 0.578125 6.8125 -0.53125 4.375 -2.75 C 1.9375 -4.976562 0.71875 -7.9375 0.71875 -11.625 C 0.71875 -12.09375 0.765625 -12.804688 0.859375 -13.765625 L 1.359375 -17.921875 C 1.410156 -18.265625 1.539062 -18.53125 1.75 -18.71875 C 1.96875 -18.90625 2.222656 -19 2.515625 -19 L 13.5625 -19 C 13.84375 -19 14.066406 -18.90625 14.234375 -18.71875 C 14.398438 -18.53125 14.460938 -18.265625 14.421875 -17.921875 L 13.90625 -13.625 C 13.8125 -12.863281 13.921875 -12.226562 14.234375 -11.71875 C 14.546875 -11.21875 15.015625 -10.96875 15.640625 -10.96875 C 16.253906 -10.96875 16.800781 -11.21875 17.28125 -11.71875 C 17.757812 -12.226562 18.023438 -12.863281 18.078125 -13.625 L 22.453125 -49.125 C 22.492188 -49.457031 22.625 -49.71875 22.84375 -49.90625 C 23.0625 -50.101562 23.3125 -50.203125 23.59375 -50.203125 L 34.640625 -50.203125 C 34.929688 -50.203125 35.160156 -50.101562 35.328125 -49.90625 C 35.492188 -49.71875 35.550781 -49.457031 35.5 -49.125 L 31.203125 -13.765625 C 30.867188 -10.941406 29.921875 -8.441406 28.359375 -6.265625 C 26.804688 -4.097656 24.8125 -2.414062 22.375 -1.21875 C 19.9375 -0.0195312 17.210938 0.578125 14.203125 0.578125 Z M 14.203125 0.578125 "/></g></g></g><g fill="#ffffff" fill-opacity="0.4"><g transform="translate(257.606089, 146.049625)"><g><path d="M 22.296875 0 C 21.628906 0 21.320312 -0.332031 21.375 -1 L 21.234375 -6.453125 C 21.273438 -6.546875 21.25 -6.628906 21.15625 -6.703125 C 21.0625 -6.773438 20.96875 -6.8125 20.875 -6.8125 L 14.625 -6.8125 C 14.382812 -6.8125 14.21875 -6.691406 14.125 -6.453125 L 12.765625 -1 C 12.617188 -0.332031 12.210938 0 11.546875 0 L 0.640625 0 C -0.078125 0 -0.335938 -0.378906 -0.140625 -1.140625 L 15.640625 -49.265625 C 15.828125 -49.890625 16.253906 -50.203125 16.921875 -50.203125 L 29.625 -50.203125 C 30.289062 -50.203125 30.648438 -49.890625 30.703125 -49.265625 L 34.640625 -1.140625 L 34.640625 -1 C 34.640625 -0.332031 34.28125 0 33.5625 0 Z M 17.0625 -17.5 C 16.96875 -17.257812 17.039062 -17.140625 17.28125 -17.140625 L 20.65625 -17.140625 C 20.800781 -17.140625 20.921875 -17.257812 21.015625 -17.5 L 20.734375 -30.765625 C 20.734375 -30.953125 20.671875 -31.035156 20.546875 -31.015625 C 20.429688 -30.992188 20.375 -30.910156 20.375 -30.765625 Z M 17.0625 -17.5 "/></g></g></g><g fill="#000000" fill-opacity="1"><g transform="translate(158.627472, 142.879988)"><g><path d="M 14.921875 0.578125 C 10.804688 0.578125 7.550781 -0.484375 5.15625 -2.609375 C 2.769531 -4.742188 1.578125 -7.578125 1.578125 -11.109375 C 1.578125 -11.453125 1.625 -12.050781 1.71875 -12.90625 L 2.015625 -15.125 C 2.054688 -15.46875 2.179688 -15.734375 2.390625 -15.921875 C 2.609375 -16.109375 2.863281 -16.203125 3.15625 -16.203125 L 14.0625 -16.203125 C 14.34375 -16.203125 14.566406 -16.109375 14.734375 -15.921875 C 14.898438 -15.734375 14.960938 -15.46875 14.921875 -15.125 L 14.78125 -13.5625 C 14.675781 -12.789062 14.765625 -12.164062 15.046875 -11.6875 C 15.335938 -11.207031 15.773438 -10.96875 16.359375 -10.96875 C 16.972656 -10.96875 17.492188 -11.226562 17.921875 -11.75 C 18.359375 -12.28125 18.578125 -12.929688 18.578125 -13.703125 C 18.578125 -14.421875 18.226562 -15.160156 17.53125 -15.921875 C 16.84375 -16.679688 15.519531 -17.851562 13.5625 -19.4375 C 11.644531 -21.007812 10.0625 -22.40625 8.8125 -23.625 C 7.570312 -24.84375 6.5 -26.347656 5.59375 -28.140625 C 4.6875 -29.941406 4.234375 -31.988281 4.234375 -34.28125 C 4.234375 -34.707031 4.28125 -35.445312 4.375 -36.5 C 4.894531 -40.757812 6.660156 -44.203125 9.671875 -46.828125 C 12.691406 -49.460938 16.445312 -50.78125 20.9375 -50.78125 C 25.050781 -50.78125 28.289062 -49.675781 30.65625 -47.46875 C 33.019531 -45.269531 34.203125 -42.304688 34.203125 -38.578125 C 34.203125 -38.148438 34.15625 -37.457031 34.0625 -36.5 L 33.84375 -34.921875 C 33.800781 -34.585938 33.671875 -34.320312 33.453125 -34.125 C 33.242188 -33.9375 32.992188 -33.84375 32.703125 -33.84375 L 21.875 -33.84375 C 21.582031 -33.84375 21.351562 -33.9375 21.1875 -34.125 C 21.019531 -34.320312 20.960938 -34.585938 21.015625 -34.921875 L 21.234375 -36.796875 C 21.273438 -37.515625 21.140625 -38.097656 20.828125 -38.546875 C 20.523438 -39.003906 20.082031 -39.234375 19.5 -39.234375 C 18.832031 -39.234375 18.285156 -38.945312 17.859375 -38.375 C 17.429688 -37.800781 17.21875 -37.035156 17.21875 -36.078125 C 17.21875 -35.265625 17.550781 -34.425781 18.21875 -33.5625 C 18.882812 -32.695312 20.128906 -31.503906 21.953125 -29.984375 C 24.390625 -27.921875 26.25 -26.253906 27.53125 -24.984375 C 28.820312 -23.722656 29.835938 -22.335938 30.578125 -20.828125 C 31.328125 -19.328125 31.703125 -17.617188 31.703125 -15.703125 C 31.703125 -15.316406 31.65625 -14.648438 31.5625 -13.703125 C 30.988281 -9.347656 29.179688 -5.878906 26.140625 -3.296875 C 23.109375 -0.710938 19.367188 0.578125 14.921875 0.578125 Z M 14.921875 0.578125 "/></g></g></g><g fill="#000000" fill-opacity="1"><g transform="translate(190.826754, 142.879988)"><g><path d="M 33.140625 -39.734375 C 33.085938 -39.398438 32.953125 -39.132812 32.734375 -38.9375 C 32.523438 -38.75 32.253906 -38.65625 31.921875 -38.65625 L 18.578125 -38.65625 C 18.335938 -38.65625 18.21875 -38.535156 18.21875 -38.296875 L 17.359375 -31.265625 C 17.265625 -31.023438 17.359375 -30.90625 17.640625 -30.90625 L 24.59375 -30.90625 C 24.925781 -30.90625 25.175781 -30.8125 25.34375 -30.625 C 25.519531 -30.4375 25.582031 -30.171875 25.53125 -29.828125 L 24.390625 -20.4375 C 24.242188 -19.71875 23.835938 -19.359375 23.171875 -19.359375 L 16.203125 -19.359375 C 15.960938 -19.359375 15.84375 -19.238281 15.84375 -19 L 14.984375 -11.90625 C 14.890625 -11.664062 14.988281 -11.546875 15.28125 -11.546875 L 28.609375 -11.546875 C 28.953125 -11.546875 29.207031 -11.445312 29.375 -11.25 C 29.539062 -11.0625 29.597656 -10.800781 29.546875 -10.46875 L 28.40625 -1.078125 C 28.351562 -0.742188 28.21875 -0.476562 28 -0.28125 C 27.789062 -0.09375 27.519531 0 27.1875 0 L 1.4375 0 C 1.144531 0 0.914062 -0.09375 0.75 -0.28125 C 0.582031 -0.476562 0.523438 -0.742188 0.578125 -1.078125 L 6.453125 -49.125 C 6.503906 -49.457031 6.632812 -49.71875 6.84375 -49.90625 C 7.0625 -50.101562 7.316406 -50.203125 7.609375 -50.203125 L 33.34375 -50.203125 C 33.675781 -50.203125 33.925781 -50.101562 34.09375 -49.90625 C 34.269531 -49.71875 34.332031 -49.457031 34.28125 -49.125 Z M 33.140625 -39.734375 "/></g></g></g><g fill="#000000" fill-opacity="1"><g transform="translate(221.735191, 142.879988)"><g><path d="M 14.203125 0.578125 C 10.085938 0.578125 6.8125 -0.53125 4.375 -2.75 C 1.9375 -4.976562 0.71875 -7.9375 0.71875 -11.625 C 0.71875 -12.09375 0.765625 -12.804688 0.859375 -13.765625 L 1.359375 -17.921875 C 1.410156 -18.265625 1.539062 -18.53125 1.75 -18.71875 C 1.96875 -18.90625 2.222656 -19 2.515625 -19 L 13.5625 -19 C 13.84375 -19 14.066406 -18.90625 14.234375 -18.71875 C 14.398438 -18.53125 14.460938 -18.265625 14.421875 -17.921875 L 13.90625 -13.625 C 13.8125 -12.863281 13.921875 -12.226562 14.234375 -11.71875 C 14.546875 -11.21875 15.015625 -10.96875 15.640625 -10.96875 C 16.253906 -10.96875 16.800781 -11.21875 17.28125 -11.71875 C 17.757812 -12.226562 18.023438 -12.863281 18.078125 -13.625 L 22.453125 -49.125 C 22.492188 -49.457031 22.625 -49.71875 22.84375 -49.90625 C 23.0625 -50.101562 23.3125 -50.203125 23.59375 -50.203125 L 34.640625 -50.203125 C 34.929688 -50.203125 35.160156 -50.101562 35.328125 -49.90625 C 35.492188 -49.71875 35.550781 -49.457031 35.5 -49.125 L 31.203125 -13.765625 C 30.867188 -10.941406 29.921875 -8.441406 28.359375 -6.265625 C 26.804688 -4.097656 24.8125 -2.414062 22.375 -1.21875 C 19.9375 -0.0195312 17.210938 0.578125 14.203125 0.578125 Z M 14.203125 0.578125 "/></g></g></g><g fill="#000000" fill-opacity="1"><g transform="translate(254.436457, 142.879988)"><g><path d="M 22.296875 0 C 21.628906 0 21.320312 -0.332031 21.375 -1 L 21.234375 -6.453125 C 21.273438 -6.546875 21.25 -6.628906 21.15625 -6.703125 C 21.0625 -6.773438 20.96875 -6.8125 20.875 -6.8125 L 14.625 -6.8125 C 14.382812 -6.8125 14.21875 -6.691406 14.125 -6.453125 L 12.765625 -1 C 12.617188 -0.332031 12.210938 0 11.546875 0 L 0.640625 0 C -0.078125 0 -0.335938 -0.378906 -0.140625 -1.140625 L 15.640625 -49.265625 C 15.828125 -49.890625 16.253906 -50.203125 16.921875 -50.203125 L 29.625 -50.203125 C 30.289062 -50.203125 30.648438 -49.890625 30.703125 -49.265625 L 34.640625 -1.140625 L 34.640625 -1 C 34.640625 -0.332031 34.28125 0 33.5625 0 Z M 17.0625 -17.5 C 16.96875 -17.257812 17.039062 -17.140625 17.28125 -17.140625 L 20.65625 -17.140625 C 20.800781 -17.140625 20.921875 -17.257812 21.015625 -17.5 L 20.734375 -30.765625 C 20.734375 -30.953125 20.671875 -31.035156 20.546875 -31.015625 C 20.429688 -30.992188 20.375 -30.910156 20.375 -30.765625 Z M 17.0625 -17.5 "/></g></g></g><g fill="#ffffff" fill-opacity="0.4"><g transform="translate(46.515274, 203.119284)"><g><path d="M 32.921875 -14.421875 C 32.390625 -9.773438 30.554688 -6.207031 27.421875 -3.71875 C 24.296875 -1.238281 20.535156 0 16.140625 0 L 1.4375 0 C 1.144531 0 0.914062 -0.09375 0.75 -0.28125 C 0.582031 -0.476562 0.523438 -0.742188 0.578125 -1.078125 L 6.453125 -49.125 C 6.503906 -49.457031 6.632812 -49.71875 6.84375 -49.90625 C 7.0625 -50.101562 7.316406 -50.203125 7.609375 -50.203125 L 20.21875 -50.203125 C 24.8125 -50.203125 28.382812 -49.234375 30.9375 -47.296875 C 33.5 -45.359375 34.78125 -42.429688 34.78125 -38.515625 C 34.78125 -38.035156 34.734375 -37.222656 34.640625 -36.078125 C 34.066406 -31.628906 32.320312 -28.328125 29.40625 -26.171875 C 29.113281 -26.035156 29.039062 -25.894531 29.1875 -25.75 C 31.769531 -23.550781 33.0625 -20.46875 33.0625 -16.5 C 33.0625 -16.0625 33.015625 -15.367188 32.921875 -14.421875 Z M 18.578125 -38.65625 C 18.335938 -38.65625 18.21875 -38.535156 18.21875 -38.296875 L 17.28125 -30.984375 C 17.28125 -30.742188 17.378906 -30.625 17.578125 -30.625 L 18 -30.625 C 20.050781 -30.625 21.269531 -31.960938 21.65625 -34.640625 L 21.734375 -35.578125 C 21.734375 -37.628906 20.820312 -38.65625 19 -38.65625 Z M 16.5 -11.546875 C 17.550781 -11.546875 18.421875 -12.046875 19.109375 -13.046875 C 19.804688 -14.054688 20.15625 -15.492188 20.15625 -17.359375 C 20.15625 -18.453125 19.9375 -19.332031 19.5 -20 C 19.070312 -20.675781 18.476562 -21.015625 17.71875 -21.015625 L 16.421875 -21.015625 C 16.179688 -21.015625 16.0625 -20.894531 16.0625 -20.65625 L 14.984375 -11.90625 C 14.890625 -11.664062 14.988281 -11.546875 15.28125 -11.546875 Z M 16.5 -11.546875 "/></g></g></g><g fill="#ffffff" fill-opacity="0.4"><g transform="translate(80.148814, 203.119284)"><g><path d="M 33.140625 -39.734375 C 33.085938 -39.398438 32.953125 -39.132812 32.734375 -38.9375 C 32.523438 -38.75 32.253906 -38.65625 31.921875 -38.65625 L 18.578125 -38.65625 C 18.335938 -38.65625 18.21875 -38.535156 18.21875 -38.296875 L 17.359375 -31.265625 C 17.265625 -31.023438 17.359375 -30.90625 17.640625 -30.90625 L 24.59375 -30.90625 C 24.925781 -30.90625 25.175781 -30.8125 25.34375 -30.625 C 25.519531 -30.4375 25.582031 -30.171875 25.53125 -29.828125 L 24.390625 -20.4375 C 24.242188 -19.71875 23.835938 -19.359375 23.171875 -19.359375 L 16.203125 -19.359375 C 15.960938 -19.359375 15.84375 -19.238281 15.84375 -19 L 14.984375 -11.90625 C 14.890625 -11.664062 14.988281 -11.546875 15.28125 -11.546875 L 28.609375 -11.546875 C 28.953125 -11.546875 29.207031 -11.445312 29.375 -11.25 C 29.539062 -11.0625 29.597656 -10.800781 29.546875 -10.46875 L 28.40625 -1.078125 C 28.351562 -0.742188 28.21875 -0.476562 28 -0.28125 C 27.789062 -0.09375 27.519531 0 27.1875 0 L 1.4375 0 C 1.144531 0 0.914062 -0.09375 0.75 -0.28125 C 0.582031 -0.476562 0.523438 -0.742188 0.578125 -1.078125 L 6.453125 -49.125 C 6.503906 -49.457031 6.632812 -49.71875 6.84375 -49.90625 C 7.0625 -50.101562 7.316406 -50.203125 7.609375 -50.203125 L 33.34375 -50.203125 C 33.675781 -50.203125 33.925781 -50.101562 34.09375 -49.90625 C 34.269531 -49.71875 34.332031 -49.457031 34.28125 -49.125 Z M 33.140625 -39.734375 "/></g></g></g><g fill="#ffffff" fill-opacity="0.4"><g transform="translate(111.057251, 203.119284)"><g><path d="M 29.46875 -49.421875 C 29.757812 -49.941406 30.191406 -50.203125 30.765625 -50.203125 L 41.671875 -50.203125 C 41.953125 -50.203125 42.175781 -50.101562 42.34375 -49.90625 C 42.507812 -49.71875 42.570312 -49.457031 42.53125 -49.125 L 36.640625 -1.078125 C 36.597656 -0.742188 36.46875 -0.476562 36.25 -0.28125 C 36.039062 -0.09375 35.789062 0 35.5 0 L 24.453125 0 C 24.171875 0 23.945312 -0.09375 23.78125 -0.28125 C 23.613281 -0.476562 23.550781 -0.742188 23.59375 -1.078125 L 27.1875 -30.40625 C 27.226562 -30.601562 27.1875 -30.710938 27.0625 -30.734375 C 26.945312 -30.753906 26.84375 -30.691406 26.75 -30.546875 L 21.875 -23.53125 L 21.015625 -22.234375 L 20.9375 -22.234375 L 17.28125 -30.546875 C 17.238281 -30.691406 17.164062 -30.753906 17.0625 -30.734375 C 16.96875 -30.710938 16.898438 -30.601562 16.859375 -30.40625 L 13.265625 -1.078125 C 13.222656 -0.742188 13.101562 -0.476562 12.90625 -0.28125 C 12.71875 -0.09375 12.457031 0 12.125 0 L 1.140625 0 C 0.804688 0 0.554688 -0.09375 0.390625 -0.28125 C 0.222656 -0.476562 0.164062 -0.742188 0.21875 -1.078125 L 6.09375 -49.125 C 6.144531 -49.457031 6.273438 -49.71875 6.484375 -49.90625 C 6.703125 -50.101562 6.957031 -50.203125 7.25 -50.203125 L 18.140625 -50.203125 C 18.710938 -50.203125 19.097656 -49.941406 19.296875 -49.421875 L 23.09375 -40.09375 C 23.1875 -39.894531 23.332031 -39.894531 23.53125 -40.09375 Z M 29.46875 -49.421875 "/></g></g></g><g fill="#ffffff" fill-opacity="0.4"><g transform="translate(150.427863, 203.119284)"><g/></g></g><g fill="#ffffff" fill-opacity="0.4"><g transform="translate(164.340244, 203.119284)"><g><path d="M 10.546875 0 C 9.867188 0 9.53125 -0.3125 9.53125 -0.9375 L 5.671875 -49.0625 C 5.671875 -49.820312 6.050781 -50.203125 6.8125 -50.203125 L 18.796875 -50.203125 C 19.460938 -50.203125 19.769531 -49.867188 19.71875 -49.203125 L 19.71875 -23.453125 C 19.675781 -23.304688 19.722656 -23.234375 19.859375 -23.234375 C 20.003906 -23.234375 20.101562 -23.304688 20.15625 -23.453125 L 26.171875 -49.203125 C 26.316406 -49.867188 26.722656 -50.203125 27.390625 -50.203125 L 39.015625 -50.203125 C 39.347656 -50.203125 39.597656 -50.101562 39.765625 -49.90625 C 39.929688 -49.71875 39.941406 -49.4375 39.796875 -49.0625 L 24.03125 -0.9375 C 23.832031 -0.3125 23.398438 0 22.734375 0 Z M 10.546875 0 "/></g></g></g><g fill="#ffffff" fill-opacity="0.4"><g transform="translate(200.555462, 203.119284)"><g><path d="M 1.4375 0 C 1.144531 0 0.914062 -0.09375 0.75 -0.28125 C 0.582031 -0.476562 0.523438 -0.742188 0.578125 -1.078125 L 6.453125 -49.125 C 6.503906 -49.457031 6.632812 -49.71875 6.84375 -49.90625 C 7.0625 -50.101562 7.316406 -50.203125 7.609375 -50.203125 L 18.640625 -50.203125 C 18.929688 -50.203125 19.160156 -50.101562 19.328125 -49.90625 C 19.492188 -49.71875 19.550781 -49.457031 19.5 -49.125 L 13.625 -1.078125 C 13.582031 -0.742188 13.453125 -0.476562 13.234375 -0.28125 C 13.015625 -0.09375 12.765625 0 12.484375 0 Z M 1.4375 0 "/></g></g></g><g fill="#ffffff" fill-opacity="0.4"><g transform="translate(217.264666, 203.119284)"><g><path d="M 26.609375 -49.125 C 26.648438 -49.457031 26.78125 -49.71875 27 -49.90625 C 27.21875 -50.101562 27.492188 -50.203125 27.828125 -50.203125 L 38.65625 -50.203125 C 38.988281 -50.203125 39.238281 -50.101562 39.40625 -49.90625 C 39.570312 -49.71875 39.632812 -49.457031 39.59375 -49.125 L 33.640625 -1.078125 C 33.585938 -0.742188 33.460938 -0.476562 33.265625 -0.28125 C 33.078125 -0.09375 32.816406 0 32.484375 0 L 20.078125 0 C 19.503906 0 19.171875 -0.3125 19.078125 -0.9375 L 16.359375 -22.953125 C 16.359375 -23.097656 16.304688 -23.171875 16.203125 -23.171875 C 16.109375 -23.171875 16.0625 -23.097656 16.0625 -22.953125 L 13.484375 -1.078125 C 13.429688 -0.742188 13.296875 -0.476562 13.078125 -0.28125 C 12.867188 -0.09375 12.617188 0 12.328125 0 L 1.4375 0 C 1.144531 0 0.914062 -0.09375 0.75 -0.28125 C 0.582031 -0.476562 0.523438 -0.742188 0.578125 -1.078125 L 6.453125 -49.125 C 6.503906 -49.457031 6.632812 -49.71875 6.84375 -49.90625 C 7.0625 -50.101562 7.316406 -50.203125 7.609375 -50.203125 L 19.859375 -50.203125 C 20.441406 -50.203125 20.78125 -49.890625 20.875 -49.265625 L 23.671875 -27.109375 C 23.671875 -26.960938 23.71875 -26.910156 23.8125 -26.953125 C 23.90625 -27.003906 23.976562 -27.082031 24.03125 -27.1875 Z M 26.609375 -49.125 "/></g></g></g><g fill="#ffffff" fill-opacity="0.4"><g transform="translate(253.98188, 203.119284)"><g><path d="M 1.4375 0 C 1.144531 0 0.914062 -0.09375 0.75 -0.28125 C 0.582031 -0.476562 0.523438 -0.742188 0.578125 -1.078125 L 6.453125 -49.125 C 6.503906 -49.457031 6.632812 -49.71875 6.84375 -49.90625 C 7.0625 -50.101562 7.316406 -50.203125 7.609375 -50.203125 L 21.296875 -50.203125 C 25.554688 -50.203125 28.941406 -49.085938 31.453125 -46.859375 C 33.960938 -44.640625 35.21875 -41.664062 35.21875 -37.9375 C 35.21875 -37.507812 35.171875 -36.816406 35.078125 -35.859375 L 32.421875 -14.34375 C 32.085938 -11.519531 31.140625 -9.019531 29.578125 -6.84375 C 28.023438 -4.664062 25.992188 -2.976562 23.484375 -1.78125 C 20.972656 -0.59375 18.1875 0 15.125 0 Z M 14.984375 -11.90625 C 14.890625 -11.664062 14.988281 -11.546875 15.28125 -11.546875 L 16.28125 -11.625 C 17.039062 -11.664062 17.71875 -12.019531 18.3125 -12.6875 C 18.914062 -13.363281 19.3125 -14.226562 19.5 -15.28125 L 21.875 -35 L 21.953125 -35.78125 C 21.953125 -36.695312 21.734375 -37.40625 21.296875 -37.90625 C 20.867188 -38.40625 20.296875 -38.65625 19.578125 -38.65625 L 18.578125 -38.65625 C 18.335938 -38.65625 18.21875 -38.535156 18.21875 -38.296875 Z M 14.984375 -11.90625 "/></g></g></g><g fill="#ffffff" fill-opacity="0.4"><g transform="translate(287.61542, 203.119284)"><g><path d="M 15.34375 0.578125 C 11.09375 0.578125 7.75 -0.582031 5.3125 -2.90625 C 2.875 -5.226562 1.65625 -8.367188 1.65625 -12.328125 C 1.65625 -12.804688 1.703125 -13.625 1.796875 -14.78125 L 4.375 -35.421875 C 4.945312 -40.109375 6.796875 -43.835938 9.921875 -46.609375 C 13.054688 -49.390625 16.96875 -50.78125 21.65625 -50.78125 C 25.863281 -50.78125 29.195312 -49.617188 31.65625 -47.296875 C 34.125 -44.972656 35.359375 -41.832031 35.359375 -37.875 C 35.359375 -37.394531 35.3125 -36.578125 35.21875 -35.421875 L 32.703125 -14.78125 C 32.128906 -10.09375 30.265625 -6.359375 27.109375 -3.578125 C 23.953125 -0.804688 20.03125 0.578125 15.34375 0.578125 Z M 16.78125 -10.96875 C 17.5 -10.96875 18.109375 -11.253906 18.609375 -11.828125 C 19.109375 -12.398438 19.429688 -13.191406 19.578125 -14.203125 L 22.234375 -36 C 22.328125 -37.007812 22.207031 -37.800781 21.875 -38.375 C 21.539062 -38.945312 21.015625 -39.234375 20.296875 -39.234375 C 19.535156 -39.234375 18.898438 -38.945312 18.390625 -38.375 C 17.890625 -37.800781 17.59375 -37.007812 17.5 -36 L 14.84375 -14.203125 C 14.800781 -14.003906 14.78125 -13.738281 14.78125 -13.40625 C 14.78125 -12.644531 14.957031 -12.046875 15.3125 -11.609375 C 15.664062 -11.179688 16.15625 -10.96875 16.78125 -10.96875 Z M 16.78125 -10.96875 "/></g></g></g><g fill="#ffffff" fill-opacity="0.4"><g transform="translate(321.248947, 203.119284)"><g><path d="M 8.03125 5.953125 C 7.550781 5.953125 7.171875 5.738281 6.890625 5.3125 C 3.160156 -1 1.296875 -8.222656 1.296875 -16.359375 C 1.296875 -18.929688 1.460938 -21.535156 1.796875 -24.171875 C 3.222656 -35.785156 7.3125 -45.585938 14.0625 -53.578125 C 14.488281 -54.003906 14.941406 -54.21875 15.421875 -54.21875 L 26.171875 -54.21875 C 26.742188 -54.21875 27.03125 -54.003906 27.03125 -53.578125 C 27.03125 -53.429688 26.960938 -53.238281 26.828125 -53 C 24.191406 -48.601562 21.976562 -44.179688 20.1875 -39.734375 C 18.394531 -35.285156 17.140625 -30.097656 16.421875 -24.171875 C 16.085938 -21.441406 15.921875 -18.71875 15.921875 -16 C 15.921875 -11.976562 16.265625 -8.351562 16.953125 -5.125 C 17.648438 -1.894531 18.570312 1.390625 19.71875 4.734375 C 19.769531 4.828125 19.796875 4.96875 19.796875 5.15625 C 19.796875 5.6875 19.460938 5.953125 18.796875 5.953125 Z M 8.03125 5.953125 "/></g></g></g><g fill="#ffffff" fill-opacity="0.4"><g transform="translate(347.065748, 203.119284)"><g><path d="M 22.296875 0 C 21.628906 0 21.320312 -0.332031 21.375 -1 L 21.234375 -6.453125 C 21.273438 -6.546875 21.25 -6.628906 21.15625 -6.703125 C 21.0625 -6.773438 20.96875 -6.8125 20.875 -6.8125 L 14.625 -6.8125 C 14.382812 -6.8125 14.21875 -6.691406 14.125 -6.453125 L 12.765625 -1 C 12.617188 -0.332031 12.210938 0 11.546875 0 L 0.640625 0 C -0.078125 0 -0.335938 -0.378906 -0.140625 -1.140625 L 15.640625 -49.265625 C 15.828125 -49.890625 16.253906 -50.203125 16.921875 -50.203125 L 29.625 -50.203125 C 30.289062 -50.203125 30.648438 -49.890625 30.703125 -49.265625 L 34.640625 -1.140625 L 34.640625 -1 C 34.640625 -0.332031 34.28125 0 33.5625 0 Z M 17.0625 -17.5 C 16.96875 -17.257812 17.039062 -17.140625 17.28125 -17.140625 L 20.65625 -17.140625 C 20.800781 -17.140625 20.921875 -17.257812 21.015625 -17.5 L 20.734375 -30.765625 C 20.734375 -30.953125 20.671875 -31.035156 20.546875 -31.015625 C 20.429688 -30.992188 20.375 -30.910156 20.375 -30.765625 Z M 17.0625 -17.5 "/></g></g></g><g fill="#ffffff" fill-opacity="0.4"><g transform="translate(383.998108, 203.119284)"><g><path d="M 20.9375 -54.21875 C 21.414062 -54.21875 21.800781 -54.003906 22.09375 -53.578125 C 25.820312 -47.265625 27.6875 -40.046875 27.6875 -31.921875 C 27.6875 -29.335938 27.519531 -26.726562 27.1875 -24.09375 C 25.75 -12.519531 21.632812 -2.71875 14.84375 5.3125 C 14.507812 5.738281 14.082031 5.953125 13.5625 5.953125 L 2.71875 5.953125 C 2.476562 5.953125 2.285156 5.890625 2.140625 5.765625 C 2.003906 5.648438 1.9375 5.5 1.9375 5.3125 L 2.078125 4.734375 C 4.710938 0.429688 6.9375 -3.953125 8.75 -8.421875 C 10.5625 -12.890625 11.828125 -18.113281 12.546875 -24.09375 C 12.878906 -26.769531 13.046875 -29.445312 13.046875 -32.125 C 13.046875 -36.144531 12.710938 -39.742188 12.046875 -42.921875 C 11.378906 -46.097656 10.445312 -49.457031 9.25 -53 C 9.207031 -53.09375 9.1875 -53.238281 9.1875 -53.4375 C 9.1875 -53.957031 9.492188 -54.21875 10.109375 -54.21875 Z M 20.9375 -54.21875 "/></g></g></g><g fill="#000000" fill-opacity="1"><g transform="translate(43.345641, 199.949647)"><g><path d="M 32.921875 -14.421875 C 32.390625 -9.773438 30.554688 -6.207031 27.421875 -3.71875 C 24.296875 -1.238281 20.535156 0 16.140625 0 L 1.4375 0 C 1.144531 0 0.914062 -0.09375 0.75 -0.28125 C 0.582031 -0.476562 0.523438 -0.742188 0.578125 -1.078125 L 6.453125 -49.125 C 6.503906 -49.457031 6.632812 -49.71875 6.84375 -49.90625 C 7.0625 -50.101562 7.316406 -50.203125 7.609375 -50.203125 L 20.21875 -50.203125 C 24.8125 -50.203125 28.382812 -49.234375 30.9375 -47.296875 C 33.5 -45.359375 34.78125 -42.429688 34.78125 -38.515625 C 34.78125 -38.035156 34.734375 -37.222656 34.640625 -36.078125 C 34.066406 -31.628906 32.320312 -28.328125 29.40625 -26.171875 C 29.113281 -26.035156 29.039062 -25.894531 29.1875 -25.75 C 31.769531 -23.550781 33.0625 -20.46875 33.0625 -16.5 C 33.0625 -16.0625 33.015625 -15.367188 32.921875 -14.421875 Z M 18.578125 -38.65625 C 18.335938 -38.65625 18.21875 -38.535156 18.21875 -38.296875 L 17.28125 -30.984375 C 17.28125 -30.742188 17.378906 -30.625 17.578125 -30.625 L 18 -30.625 C 20.050781 -30.625 21.269531 -31.960938 21.65625 -34.640625 L 21.734375 -35.578125 C 21.734375 -37.628906 20.820312 -38.65625 19 -38.65625 Z M 16.5 -11.546875 C 17.550781 -11.546875 18.421875 -12.046875 19.109375 -13.046875 C 19.804688 -14.054688 20.15625 -15.492188 20.15625 -17.359375 C 20.15625 -18.453125 19.9375 -19.332031 19.5 -20 C 19.070312 -20.675781 18.476562 -21.015625 17.71875 -21.015625 L 16.421875 -21.015625 C 16.179688 -21.015625 16.0625 -20.894531 16.0625 -20.65625 L 14.984375 -11.90625 C 14.890625 -11.664062 14.988281 -11.546875 15.28125 -11.546875 Z M 16.5 -11.546875 "/></g></g></g><g fill="#000000" fill-opacity="1"><g transform="translate(76.979181, 199.949647)"><g><path d="M 33.140625 -39.734375 C 33.085938 -39.398438 32.953125 -39.132812 32.734375 -38.9375 C 32.523438 -38.75 32.253906 -38.65625 31.921875 -38.65625 L 18.578125 -38.65625 C 18.335938 -38.65625 18.21875 -38.535156 18.21875 -38.296875 L 17.359375 -31.265625 C 17.265625 -31.023438 17.359375 -30.90625 17.640625 -30.90625 L 24.59375 -30.90625 C 24.925781 -30.90625 25.175781 -30.8125 25.34375 -30.625 C 25.519531 -30.4375 25.582031 -30.171875 25.53125 -29.828125 L 24.390625 -20.4375 C 24.242188 -19.71875 23.835938 -19.359375 23.171875 -19.359375 L 16.203125 -19.359375 C 15.960938 -19.359375 15.84375 -19.238281 15.84375 -19 L 14.984375 -11.90625 C 14.890625 -11.664062 14.988281 -11.546875 15.28125 -11.546875 L 28.609375 -11.546875 C 28.953125 -11.546875 29.207031 -11.445312 29.375 -11.25 C 29.539062 -11.0625 29.597656 -10.800781 29.546875 -10.46875 L 28.40625 -1.078125 C 28.351562 -0.742188 28.21875 -0.476562 28 -0.28125 C 27.789062 -0.09375 27.519531 0 27.1875 0 L 1.4375 0 C 1.144531 0 0.914062 -0.09375 0.75 -0.28125 C 0.582031 -0.476562 0.523438 -0.742188 0.578125 -1.078125 L 6.453125 -49.125 C 6.503906 -49.457031 6.632812 -49.71875 6.84375 -49.90625 C 7.0625 -50.101562 7.316406 -50.203125 7.609375 -50.203125 L 33.34375 -50.203125 C 33.675781 -50.203125 33.925781 -50.101562 34.09375 -49.90625 C 34.269531 -49.71875 34.332031 -49.457031 34.28125 -49.125 Z M 33.140625 -39.734375 "/></g></g></g><g fill="#000000" fill-opacity="1"><g transform="translate(107.887618, 199.949647)"><g><path d="M 29.46875 -49.421875 C 29.757812 -49.941406 30.191406 -50.203125 30.765625 -50.203125 L 41.671875 -50.203125 C 41.953125 -50.203125 42.175781 -50.101562 42.34375 -49.90625 C 42.507812 -49.71875 42.570312 -49.457031 42.53125 -49.125 L 36.640625 -1.078125 C 36.597656 -0.742188 36.46875 -0.476562 36.25 -0.28125 C 36.039062 -0.09375 35.789062 0 35.5 0 L 24.453125 0 C 24.171875 0 23.945312 -0.09375 23.78125 -0.28125 C 23.613281 -0.476562 23.550781 -0.742188 23.59375 -1.078125 L 27.1875 -30.40625 C 27.226562 -30.601562 27.1875 -30.710938 27.0625 -30.734375 C 26.945312 -30.753906 26.84375 -30.691406 26.75 -30.546875 L 21.875 -23.53125 L 21.015625 -22.234375 L 20.9375 -22.234375 L 17.28125 -30.546875 C 17.238281 -30.691406 17.164062 -30.753906 17.0625 -30.734375 C 16.96875 -30.710938 16.898438 -30.601562 16.859375 -30.40625 L 13.265625 -1.078125 C 13.222656 -0.742188 13.101562 -0.476562 12.90625 -0.28125 C 12.71875 -0.09375 12.457031 0 12.125 0 L 1.140625 0 C 0.804688 0 0.554688 -0.09375 0.390625 -0.28125 C 0.222656 -0.476562 0.164062 -0.742188 0.21875 -1.078125 L 6.09375 -49.125 C 6.144531 -49.457031 6.273438 -49.71875 6.484375 -49.90625 C 6.703125 -50.101562 6.957031 -50.203125 7.25 -50.203125 L 18.140625 -50.203125 C 18.710938 -50.203125 19.097656 -49.941406 19.296875 -49.421875 L 23.09375 -40.09375 C 23.1875 -39.894531 23.332031 -39.894531 23.53125 -40.09375 Z M 29.46875 -49.421875 "/></g></g></g><g fill="#000000" fill-opacity="1"><g transform="translate(147.25823, 199.949647)"><g/></g></g><g fill="#000000" fill-opacity="1"><g transform="translate(161.170611, 199.949647)"><g><path d="M 10.546875 0 C 9.867188 0 9.53125 -0.3125 9.53125 -0.9375 L 5.671875 -49.0625 C 5.671875 -49.820312 6.050781 -50.203125 6.8125 -50.203125 L 18.796875 -50.203125 C 19.460938 -50.203125 19.769531 -49.867188 19.71875 -49.203125 L 19.71875 -23.453125 C 19.675781 -23.304688 19.722656 -23.234375 19.859375 -23.234375 C 20.003906 -23.234375 20.101562 -23.304688 20.15625 -23.453125 L 26.171875 -49.203125 C 26.316406 -49.867188 26.722656 -50.203125 27.390625 -50.203125 L 39.015625 -50.203125 C 39.347656 -50.203125 39.597656 -50.101562 39.765625 -49.90625 C 39.929688 -49.71875 39.941406 -49.4375 39.796875 -49.0625 L 24.03125 -0.9375 C 23.832031 -0.3125 23.398438 0 22.734375 0 Z M 10.546875 0 "/></g></g></g><g fill="#000000" fill-opacity="1"><g transform="translate(197.385829, 199.949647)"><g><path d="M 1.4375 0 C 1.144531 0 0.914062 -0.09375 0.75 -0.28125 C 0.582031 -0.476562 0.523438 -0.742188 0.578125 -1.078125 L 6.453125 -49.125 C 6.503906 -49.457031 6.632812 -49.71875 6.84375 -49.90625 C 7.0625 -50.101562 7.316406 -50.203125 7.609375 -50.203125 L 18.640625 -50.203125 C 18.929688 -50.203125 19.160156 -50.101562 19.328125 -49.90625 C 19.492188 -49.71875 19.550781 -49.457031 19.5 -49.125 L 13.625 -1.078125 C 13.582031 -0.742188 13.453125 -0.476562 13.234375 -0.28125 C 13.015625 -0.09375 12.765625 0 12.484375 0 Z M 1.4375 0 "/></g></g></g><g fill="#000000" fill-opacity="1"><g transform="translate(214.095033, 199.949647)"><g><path d="M 26.609375 -49.125 C 26.648438 -49.457031 26.78125 -49.71875 27 -49.90625 C 27.21875 -50.101562 27.492188 -50.203125 27.828125 -50.203125 L 38.65625 -50.203125 C 38.988281 -50.203125 39.238281 -50.101562 39.40625 -49.90625 C 39.570312 -49.71875 39.632812 -49.457031 39.59375 -49.125 L 33.640625 -1.078125 C 33.585938 -0.742188 33.460938 -0.476562 33.265625 -0.28125 C 33.078125 -0.09375 32.816406 0 32.484375 0 L 20.078125 0 C 19.503906 0 19.171875 -0.3125 19.078125 -0.9375 L 16.359375 -22.953125 C 16.359375 -23.097656 16.304688 -23.171875 16.203125 -23.171875 C 16.109375 -23.171875 16.0625 -23.097656 16.0625 -22.953125 L 13.484375 -1.078125 C 13.429688 -0.742188 13.296875 -0.476562 13.078125 -0.28125 C 12.867188 -0.09375 12.617188 0 12.328125 0 L 1.4375 0 C 1.144531 0 0.914062 -0.09375 0.75 -0.28125 C 0.582031 -0.476562 0.523438 -0.742188 0.578125 -1.078125 L 6.453125 -49.125 C 6.503906 -49.457031 6.632812 -49.71875 6.84375 -49.90625 C 7.0625 -50.101562 7.316406 -50.203125 7.609375 -50.203125 L 19.859375 -50.203125 C 20.441406 -50.203125 20.78125 -49.890625 20.875 -49.265625 L 23.671875 -27.109375 C 23.671875 -26.960938 23.71875 -26.910156 23.8125 -26.953125 C 23.90625 -27.003906 23.976562 -27.082031 24.03125 -27.1875 Z M 26.609375 -49.125 "/></g></g></g><g fill="#000000" fill-opacity="1"><g transform="translate(250.812247, 199.949647)"><g><path d="M 1.4375 0 C 1.144531 0 0.914062 -0.09375 0.75 -0.28125 C 0.582031 -0.476562 0.523438 -0.742188 0.578125 -1.078125 L 6.453125 -49.125 C 6.503906 -49.457031 6.632812 -49.71875 6.84375 -49.90625 C 7.0625 -50.101562 7.316406 -50.203125 7.609375 -50.203125 L 21.296875 -50.203125 C 25.554688 -50.203125 28.941406 -49.085938 31.453125 -46.859375 C 33.960938 -44.640625 35.21875 -41.664062 35.21875 -37.9375 C 35.21875 -37.507812 35.171875 -36.816406 35.078125 -35.859375 L 32.421875 -14.34375 C 32.085938 -11.519531 31.140625 -9.019531 29.578125 -6.84375 C 28.023438 -4.664062 25.992188 -2.976562 23.484375 -1.78125 C 20.972656 -0.59375 18.1875 0 15.125 0 Z M 14.984375 -11.90625 C 14.890625 -11.664062 14.988281 -11.546875 15.28125 -11.546875 L 16.28125 -11.625 C 17.039062 -11.664062 17.71875 -12.019531 18.3125 -12.6875 C 18.914062 -13.363281 19.3125 -14.226562 19.5 -15.28125 L 21.875 -35 L 21.953125 -35.78125 C 21.953125 -36.695312 21.734375 -37.40625 21.296875 -37.90625 C 20.867188 -38.40625 20.296875 -38.65625 19.578125 -38.65625 L 18.578125 -38.65625 C 18.335938 -38.65625 18.21875 -38.535156 18.21875 -38.296875 Z M 14.984375 -11.90625 "/></g></g></g><g fill="#000000" fill-opacity="1"><g transform="translate(284.445787, 199.949647)"><g><path d="M 15.34375 0.578125 C 11.09375 0.578125 7.75 -0.582031 5.3125 -2.90625 C 2.875 -5.226562 1.65625 -8.367188 1.65625 -12.328125 C 1.65625 -12.804688 1.703125 -13.625 1.796875 -14.78125 L 4.375 -35.421875 C 4.945312 -40.109375 6.796875 -43.835938 9.921875 -46.609375 C 13.054688 -49.390625 16.96875 -50.78125 21.65625 -50.78125 C 25.863281 -50.78125 29.195312 -49.617188 31.65625 -47.296875 C 34.125 -44.972656 35.359375 -41.832031 35.359375 -37.875 C 35.359375 -37.394531 35.3125 -36.578125 35.21875 -35.421875 L 32.703125 -14.78125 C 32.128906 -10.09375 30.265625 -6.359375 27.109375 -3.578125 C 23.953125 -0.804688 20.03125 0.578125 15.34375 0.578125 Z M 16.78125 -10.96875 C 17.5 -10.96875 18.109375 -11.253906 18.609375 -11.828125 C 19.109375 -12.398438 19.429688 -13.191406 19.578125 -14.203125 L 22.234375 -36 C 22.328125 -37.007812 22.207031 -37.800781 21.875 -38.375 C 21.539062 -38.945312 21.015625 -39.234375 20.296875 -39.234375 C 19.535156 -39.234375 18.898438 -38.945312 18.390625 -38.375 C 17.890625 -37.800781 17.59375 -37.007812 17.5 -36 L 14.84375 -14.203125 C 14.800781 -14.003906 14.78125 -13.738281 14.78125 -13.40625 C 14.78125 -12.644531 14.957031 -12.046875 15.3125 -11.609375 C 15.664062 -11.179688 16.15625 -10.96875 16.78125 -10.96875 Z M 16.78125 -10.96875 "/></g></g></g><g fill="#000000" fill-opacity="1"><g transform="translate(318.079314, 199.949647)"><g><path d="M 8.03125 5.953125 C 7.550781 5.953125 7.171875 5.738281 6.890625 5.3125 C 3.160156 -1 1.296875 -8.222656 1.296875 -16.359375 C 1.296875 -18.929688 1.460938 -21.535156 1.796875 -24.171875 C 3.222656 -35.785156 7.3125 -45.585938 14.0625 -53.578125 C 14.488281 -54.003906 14.941406 -54.21875 15.421875 -54.21875 L 26.171875 -54.21875 C 26.742188 -54.21875 27.03125 -54.003906 27.03125 -53.578125 C 27.03125 -53.429688 26.960938 -53.238281 26.828125 -53 C 24.191406 -48.601562 21.976562 -44.179688 20.1875 -39.734375 C 18.394531 -35.285156 17.140625 -30.097656 16.421875 -24.171875 C 16.085938 -21.441406 15.921875 -18.71875 15.921875 -16 C 15.921875 -11.976562 16.265625 -8.351562 16.953125 -5.125 C 17.648438 -1.894531 18.570312 1.390625 19.71875 4.734375 C 19.769531 4.828125 19.796875 4.96875 19.796875 5.15625 C 19.796875 5.6875 19.460938 5.953125 18.796875 5.953125 Z M 8.03125 5.953125 "/></g></g></g><g fill="#000000" fill-opacity="1"><g transform="translate(343.896115, 199.949647)"><g><path d="M 22.296875 0 C 21.628906 0 21.320312 -0.332031 21.375 -1 L 21.234375 -6.453125 C 21.273438 -6.546875 21.25 -6.628906 21.15625 -6.703125 C 21.0625 -6.773438 20.96875 -6.8125 20.875 -6.8125 L 14.625 -6.8125 C 14.382812 -6.8125 14.21875 -6.691406 14.125 -6.453125 L 12.765625 -1 C 12.617188 -0.332031 12.210938 0 11.546875 0 L 0.640625 0 C -0.078125 0 -0.335938 -0.378906 -0.140625 -1.140625 L 15.640625 -49.265625 C 15.828125 -49.890625 16.253906 -50.203125 16.921875 -50.203125 L 29.625 -50.203125 C 30.289062 -50.203125 30.648438 -49.890625 30.703125 -49.265625 L 34.640625 -1.140625 L 34.640625 -1 C 34.640625 -0.332031 34.28125 0 33.5625 0 Z M 17.0625 -17.5 C 16.96875 -17.257812 17.039062 -17.140625 17.28125 -17.140625 L 20.65625 -17.140625 C 20.800781 -17.140625 20.921875 -17.257812 21.015625 -17.5 L 20.734375 -30.765625 C 20.734375 -30.953125 20.671875 -31.035156 20.546875 -31.015625 C 20.429688 -30.992188 20.375 -30.910156 20.375 -30.765625 Z M 17.0625 -17.5 "/></g></g></g><g fill="#000000" fill-opacity="1"><g transform="translate(380.828475, 199.949647)"><g><path d="M 20.9375 -54.21875 C 21.414062 -54.21875 21.800781 -54.003906 22.09375 -53.578125 C 25.820312 -47.265625 27.6875 -40.046875 27.6875 -31.921875 C 27.6875 -29.335938 27.519531 -26.726562 27.1875 -24.09375 C 25.75 -12.519531 21.632812 -2.71875 14.84375 5.3125 C 14.507812 5.738281 14.082031 5.953125 13.5625 5.953125 L 2.71875 5.953125 C 2.476562 5.953125 2.285156 5.890625 2.140625 5.765625 C 2.003906 5.648438 1.9375 5.5 1.9375 5.3125 L 2.078125 4.734375 C 4.710938 0.429688 6.9375 -3.953125 8.75 -8.421875 C 10.5625 -12.890625 11.828125 -18.113281 12.546875 -24.09375 C 12.878906 -26.769531 13.046875 -29.445312 13.046875 -32.125 C 13.046875 -36.144531 12.710938 -39.742188 12.046875 -42.921875 C 11.378906 -46.097656 10.445312 -49.457031 9.25 -53 C 9.207031 -53.09375 9.1875 -53.238281 9.1875 -53.4375 C 9.1875 -53.957031 9.492188 -54.21875 10.109375 -54.21875 Z M 20.9375 -54.21875 "/></g></g></g></svg>